<svg width="21" height="15" viewBox="0 0 21 15" fill="none" xmlns="http://www.w3.org/2000/svg">
<path fill-rule="evenodd" clip-rule="evenodd" d="M2 0C0.89543 0 0 0.895431 0 2V13C0 14.1046 0.895431 15 2 15H19C20.1046 15 21 14.1046 21 13V2C21 0.89543 20.1046 0 19 0H2Z" fill="#22438B"/>
<mask id="mask0" mask-type="alpha" maskUnits="userSpaceOnUse" x="0" y="0" width="21" height="15">
<path fill-rule="evenodd" clip-rule="evenodd" d="M2 0C0.89543 0 0 0.895431 0 2V13C0 14.1046 0.895431 15 2 15H19C20.1046 15 21 14.1046 21 13V2C21 0.89543 20.1046 0 19 0H2Z" fill="white"/>
</mask>
<g mask="url(#mask0)">
<path fill-rule="evenodd" clip-rule="evenodd" d="M3 1L0.973633 1.02637L1 3L17.9818 14.0281L20.0188 13.9911L19.9818 12.0281L3 1Z" fill="white"/>
<path fill-rule="evenodd" clip-rule="evenodd" d="M2 1L1 2L19 14L20 13L2 1Z" fill="#C7152A"/>
<path fill-rule="evenodd" clip-rule="evenodd" d="M18 1L20 1V3C20 3 8.25066 10.3962 3.01824 14.0281C2.95462 14.0722 1.0203 14.0313 1.0203 14.0313L0.864799 12.1277L18 1Z" fill="white"/>
<path fill-rule="evenodd" clip-rule="evenodd" d="M19.0429 0.972168L20 2L2 14L1 13L19.0429 0.972168Z" fill="#C7152A"/>
<path fill-rule="evenodd" clip-rule="evenodd" d="M8 1H13V5H20V10H13V14H8V10H1V5H8V1Z" fill="white"/>
<path fill-rule="evenodd" clip-rule="evenodd" d="M9 1H12V6H20V9H12V14H9V9H1V6H9V1Z" fill="#C7152A"/>
</g>
<path fill-rule="evenodd" clip-rule="evenodd" d="M1.5 0.5C0.947716 0.5 0.5 0.947715 0.5 1.5V13.5C0.5 14.0523 0.947715 14.5 1.5 14.5H19.5C20.0523 14.5 20.5 14.0523 20.5 13.5V1.5C20.5 0.947716 20.0523 0.5 19.5 0.5H1.5Z" stroke="#2F343A" stroke-opacity="0.156646"/>
<mask id="mask1" mask-type="alpha" maskUnits="userSpaceOnUse" x="0" y="0" width="21" height="15">
<path fill-rule="evenodd" clip-rule="evenodd" d="M1.5 0.5C0.947715 0.5 0.5 0.947715 0.5 1.5V13.5C0.5 14.0523 0.947715 14.5 1.5 14.5H19.5C20.0523 14.5 20.5 14.0523 20.5 13.5V1.5C20.5 0.947716 20.0523 0.5 19.5 0.5H1.5Z" fill="white" stroke="white"/>
</mask>
<g mask="url(#mask1)">
</g>
</svg>
