<svg width="21" height="15" viewBox="0 0 21 15" fill="none" xmlns="http://www.w3.org/2000/svg">
<path fill-rule="evenodd" clip-rule="evenodd" d="M2 0C0.89543 0 0 0.895431 0 2V13C0 14.1046 0.895431 15 2 15H19C20.1046 15 21 14.1046 21 13V2C21 0.89543 20.1046 0 19 0H2Z" fill="#2E5BB3"/>
<mask id="mask0" mask-type="alpha" maskUnits="userSpaceOnUse" x="0" y="0" width="21" height="15">
<path fill-rule="evenodd" clip-rule="evenodd" d="M2 0C0.89543 0 0 0.895431 0 2V13C0 14.1046 0.895431 15 2 15H19C20.1046 15 21 14.1046 21 13V2C21 0.89543 20.1046 0 19 0H2Z" fill="white"/>
</mask>
<g mask="url(#mask0)">
<path fill-rule="evenodd" clip-rule="evenodd" d="M0 10V15H21V10H0Z" fill="#CF2338"/>
<path fill-rule="evenodd" clip-rule="evenodd" d="M0 0V5H21V0H0Z" fill="white"/>
</g>
<path fill-rule="evenodd" clip-rule="evenodd" d="M1.5 0.5C0.947716 0.5 0.5 0.947715 0.5 1.5V13.5C0.5 14.0523 0.947715 14.5 1.5 14.5H19.5C20.0523 14.5 20.5 14.0523 20.5 13.5V1.5C20.5 0.947716 20.0523 0.5 19.5 0.5H1.5Z" stroke="#2F343A" stroke-opacity="0.156646"/>
<mask id="mask1" mask-type="alpha" maskUnits="userSpaceOnUse" x="0" y="0" width="21" height="15">
<path fill-rule="evenodd" clip-rule="evenodd" d="M1.5 0.5C0.947715 0.5 0.5 0.947715 0.5 1.5V13.5C0.5 14.0523 0.947715 14.5 1.5 14.5H19.5C20.0523 14.5 20.5 14.0523 20.5 13.5V1.5C20.5 0.947716 20.0523 0.5 19.5 0.5H1.5Z" fill="white" stroke="white"/>
</mask>
<g mask="url(#mask1)">
</g>
</svg>
