<svg width="590" height="75" viewBox="0 0 590 75" fill="none" xmlns="http://www.w3.org/2000/svg">
<path d="M19 30.7188C18.7083 30.7188 18.4583 30.8125 18.25 31C18.0417 31.1667 17.8958 31.3646 17.8125 31.5938C17.8125 31.5938 17.8125 31.6042 17.8125 31.625C17.8125 31.625 17.8021 31.6458 17.7812 31.6875C17.7604 31.7292 17.7396 31.8021 17.7188 31.9062C17.6979 32.0104 17.6667 32.1667 17.625 32.375C17.5833 32.5625 17.5208 32.8021 17.4375 33.0938C17.375 33.3854 17.2917 33.75 17.1875 34.1875C17.0833 34.625 16.9583 35.1354 16.8125 35.7188C16.75 36.1146 16.8333 36.4583 17.0625 36.75C17.2917 37.0417 17.5938 37.1875 17.9688 37.1875C17.9896 37.1875 18.0208 37.1875 18.0625 37.1875C18.1042 37.1875 18.1667 37.1875 18.25 37.1875C18.3542 37.1875 18.5 37.1875 18.6875 37.1875C18.875 37.1875 19.1042 37.1875 19.375 37.1875C19.6667 37.1875 20.0104 37.1875 20.4062 37.1875C20.8229 37.1875 21.3125 37.1875 21.875 37.1875C22.4375 37.1875 23.0833 37.1875 23.8125 37.1875C24.5417 37.1875 25.3646 37.1875 26.2812 37.1875C27.2188 37.1875 28.2604 37.1875 29.4062 37.1875C30.5521 37.1875 31.8125 37.1875 33.1875 37.1875C36 37.1875 38.2396 38.2812 39.9062 40.4688C41.5938 42.6354 42.1146 45.1354 41.4688 47.9688C41.4688 47.9688 41.4688 47.9792 41.4688 48C41.4688 48 41.4583 48.0208 41.4375 48.0625C41.4375 48.1042 41.4271 48.1771 41.4062 48.2812C41.3854 48.3646 41.3542 48.5 41.3125 48.6875C41.2708 48.8542 41.2083 49.0729 41.125 49.3438C41.0625 49.6146 40.9792 49.9583 40.875 50.375C40.7917 50.7708 40.6771 51.2396 40.5312 51.7812C40.4062 52.3229 40.25 52.9479 40.0625 53.6562C39.8958 54.3646 39.7083 55.1667 39.5 56.0625C38.9583 58.1042 37.875 59.7708 36.25 61.0625C34.625 62.3542 32.7396 63 30.5938 63C30.5938 63 30.5833 63 30.5625 63C30.5625 63 30.5312 63 30.4688 63C30.4271 63 30.3438 63 30.2188 63C30.0938 63 29.9167 63 29.6875 63C29.4792 63 29.1979 63 28.8438 63C28.5104 63 28.0938 63 27.5938 63C27.0938 63 26.5 63 25.8125 63C25.125 63 24.3333 63 23.4375 63C22.5625 63 21.5625 63 20.4375 63C19.3125 63 18.0521 63 16.6562 63C15.2812 63 13.75 63 12.0625 63C10.375 63 8.53125 63 6.53125 63C4.53125 63 2.35417 63 0 63C0 62.9792 0 62.9479 0 62.9062C0.0208333 62.8438 0.0416667 62.7604 0.0625 62.6562C0.104167 62.5312 0.145833 62.3646 0.1875 62.1562C0.25 61.9479 0.322917 61.6771 0.40625 61.3438C0.489583 61.0104 0.583333 60.6042 0.6875 60.125C0.791667 59.6458 0.916667 59.0833 1.0625 58.4375C1.22917 57.7708 1.41667 57.0104 1.625 56.1562C1.83333 55.3021 2.0625 54.3438 2.3125 53.2812C2.33333 53.2812 2.36458 53.2812 2.40625 53.2812C2.46875 53.2812 2.55208 53.2812 2.65625 53.2812C2.76042 53.2812 2.90625 53.2812 3.09375 53.2812C3.30208 53.2812 3.55208 53.2812 3.84375 53.2812C4.15625 53.2812 4.53125 53.2812 4.96875 53.2812C5.40625 53.2812 5.91667 53.2812 6.5 53.2812C7.10417 53.2812 7.79167 53.2812 8.5625 53.2812C9.35417 53.2812 10.2396 53.2812 11.2188 53.2812C12.2188 53.2812 13.3333 53.2812 14.5625 53.2812C15.7917 53.2812 17.1458 53.2812 18.625 53.2812C20.1042 53.2812 21.7188 53.2812 23.4688 53.2812C25.2396 53.2812 27.1562 53.2812 29.2188 53.2812C29.8021 53.2812 30.2083 52.9792 30.4375 52.375C30.4375 52.3542 30.4375 52.3229 30.4375 52.2812C30.4583 52.2396 30.4792 52.1667 30.5 52.0625C30.5208 51.9583 30.5521 51.8125 30.5938 51.625C30.6562 51.4167 30.7188 51.1667 30.7812 50.875C30.8646 50.5833 30.9583 50.2188 31.0625 49.7812C31.1667 49.3438 31.2812 48.8333 31.4062 48.25C31.5521 47.875 31.5104 47.5417 31.2812 47.25C31.0729 46.9375 30.7812 46.7812 30.4062 46.7812C30.4271 46.7812 30.4271 46.7812 30.4062 46.7812C30.4062 46.7812 30.375 46.7812 30.3125 46.7812C30.2708 46.7812 30.1979 46.7812 30.0938 46.7812C30.0104 46.7812 29.875 46.7812 29.6875 46.7812C29.5 46.7812 29.2604 46.7812 28.9688 46.7812C28.6771 46.7812 28.3229 46.7812 27.9062 46.7812C27.5104 46.7812 27.0312 46.7812 26.4688 46.7812C25.9062 46.7812 25.25 46.7812 24.5 46.7812C23.7708 46.7812 22.9375 46.7812 22 46.7812C21.0625 46.7812 20.0104 46.7812 18.8438 46.7812C17.6979 46.7812 16.4375 46.7812 15.0625 46.7812C12.25 46.7812 10 45.7188 8.3125 43.5938C6.625 41.4479 6.10417 38.9271 6.75 36.0312C6.75 36.0104 6.75 35.9792 6.75 35.9375C6.77083 35.8958 6.79167 35.8229 6.8125 35.7188C6.85417 35.6146 6.89583 35.4792 6.9375 35.3125C6.97917 35.125 7.03125 34.8958 7.09375 34.625C7.15625 34.3542 7.23958 34.0208 7.34375 33.625C7.44792 33.2292 7.5625 32.7604 7.6875 32.2188C7.8125 31.6562 7.95833 31.0208 8.125 30.3125C8.3125 29.6042 8.52083 28.8021 8.75 27.9062C10.5208 23.3854 13.4792 21.125 17.625 21.125C17.6458 21.125 17.6771 21.125 17.7188 21.125C17.7812 21.125 17.875 21.125 18 21.125C18.125 21.125 18.3021 21.125 18.5312 21.125C18.7604 21.125 19.0417 21.125 19.375 21.125C19.7292 21.125 20.1562 21.125 20.6562 21.125C21.1562 21.125 21.75 21.125 22.4375 21.125C23.125 21.125 23.9062 21.125 24.7812 21.125C25.6771 21.125 26.6875 21.125 27.8125 21.125C28.9583 21.125 30.2292 21.125 31.625 21.125C33.0208 21.125 34.5625 21.125 36.25 21.125C37.9375 21.125 39.7917 21.125 41.8125 21.125C43.8333 21.125 46.0208 21.125 48.375 21.125C48.375 21.125 48.375 21.1354 48.375 21.1562C48.375 21.1562 48.3646 21.1875 48.3438 21.25C48.3438 21.2917 48.3229 21.375 48.2812 21.5C48.2604 21.6042 48.2188 21.7604 48.1562 21.9688C48.1146 22.1771 48.0417 22.4479 47.9375 22.7812C47.8542 23.0938 47.75 23.4896 47.625 23.9688C47.5208 24.4271 47.3854 24.9792 47.2188 25.625C47.0521 26.2708 46.8542 27.0208 46.625 27.875C46.4167 28.7083 46.1771 29.6562 45.9062 30.7188C45.9062 30.7188 45.8958 30.7188 45.875 30.7188C45.875 30.7188 45.8542 30.7188 45.8125 30.7188C45.7708 30.7188 45.6875 30.7188 45.5625 30.7188C45.4583 30.7188 45.3125 30.7188 45.125 30.7188C44.9375 30.7188 44.6875 30.7188 44.375 30.7188C44.0625 30.7188 43.6875 30.7188 43.25 30.7188C42.8125 30.7188 42.2917 30.7188 41.6875 30.7188C41.1042 30.7188 40.4167 30.7188 39.625 30.7188C38.8542 30.7188 37.9688 30.7188 36.9688 30.7188C35.9896 30.7188 34.8854 30.7188 33.6562 30.7188C32.4479 30.7188 31.1042 30.7188 29.625 30.7188C28.1458 30.7188 26.5208 30.7188 24.75 30.7188C22.9792 30.7188 21.0625 30.7188 19 30.7188Z" fill="white"/>
<path d="M85.2487 63C85.2696 62.9792 85.28 62.9479 85.28 62.9062C85.3008 62.8646 85.3217 62.7917 85.3425 62.6875C85.3633 62.5625 85.3946 62.4062 85.4362 62.2188C85.4987 62.0104 85.5612 61.7604 85.6237 61.4688C85.7071 61.1562 85.8008 60.7812 85.905 60.3438C86.0092 59.8854 86.1237 59.3542 86.2487 58.75C86.3946 58.1458 86.5612 57.4479 86.7487 56.6562C86.9362 55.8646 87.1446 54.9688 87.3737 53.9688C87.6237 52.9479 87.8946 51.8229 88.1862 50.5938C88.4779 49.3646 88.8008 48 89.155 46.5C89.5092 45 89.8946 43.3542 90.3112 41.5625C90.7279 39.7708 91.1862 37.8333 91.6862 35.75C92.1862 33.6458 92.7175 31.3854 93.28 28.9688C93.8425 26.5312 94.4571 23.9167 95.1237 21.125C95.1237 21.125 95.1133 21.125 95.0925 21.125C95.0925 21.125 95.0717 21.125 95.03 21.125C94.9883 21.125 94.9154 21.125 94.8112 21.125C94.7071 21.125 94.5612 21.125 94.3737 21.125C94.2071 21.125 93.9779 21.125 93.6862 21.125C93.4154 21.125 93.0717 21.125 92.655 21.125C92.2592 21.125 91.78 21.125 91.2175 21.125C90.655 21.125 90.0092 21.125 89.28 21.125C88.5717 21.125 87.7592 21.125 86.8425 21.125C85.9258 21.125 84.8946 21.125 83.7487 21.125C83.7487 21.125 83.7279 21.1458 83.6862 21.1875C83.6446 21.2292 83.5821 21.3021 83.4987 21.4062C83.4362 21.5104 83.3321 21.6562 83.1862 21.8438C83.0404 22.0312 82.8425 22.2917 82.5925 22.625C82.3633 22.9375 82.0821 23.3229 81.7487 23.7812C81.4154 24.2396 81.0196 24.7917 80.5612 25.4375C80.1029 26.0833 79.5717 26.8333 78.9675 27.6875C78.3633 28.5417 77.6758 29.5104 76.905 30.5938C76.155 31.6771 75.3008 32.8958 74.3425 34.25C73.405 35.5833 72.3633 37.0729 71.2175 38.7188C70.0717 40.3646 68.8112 42.1667 67.4362 44.125C67.4571 44.125 67.4675 44.125 67.4675 44.125C67.4675 44.1042 67.4571 44.0833 67.4362 44.0625C67.4362 44.0417 67.4258 44.0104 67.405 43.9688C67.405 43.9062 67.3946 43.8333 67.3737 43.75C67.3737 43.6458 67.3633 43.5312 67.3425 43.4062C67.3217 43.2812 67.2904 43.125 67.2487 42.9375C67.2071 42.75 67.1654 42.5417 67.1237 42.3125C67.0821 42.0625 67.03 41.7812 66.9675 41.4688C66.905 41.1562 66.8321 40.8125 66.7487 40.4375C66.6862 40.0417 66.6029 39.6146 66.4987 39.1562C66.4154 38.6771 66.3112 38.1562 66.1862 37.5938C66.0821 37.0104 65.9571 36.3854 65.8112 35.7188C65.6862 35.0521 65.5404 34.3333 65.3737 33.5625C65.2279 32.7708 65.0612 31.9271 64.8737 31.0312C64.6862 30.1146 64.4883 29.1458 64.28 28.125C64.0717 27.1042 63.8425 26.0104 63.5925 24.8438C63.3633 23.6771 63.1133 22.4375 62.8425 21.125C62.8425 21.125 62.8321 21.125 62.8112 21.125C62.8112 21.125 62.7904 21.125 62.7487 21.125C62.7071 21.125 62.6446 21.125 62.5612 21.125C62.4987 21.125 62.3946 21.125 62.2487 21.125C62.1237 21.125 61.9571 21.125 61.7487 21.125C61.5404 21.125 61.2904 21.125 60.9987 21.125C60.7071 21.125 60.3633 21.125 59.9675 21.125C59.5925 21.125 59.1446 21.125 58.6237 21.125C58.1237 21.125 57.5508 21.125 56.905 21.125C53.9467 21.125 51.8946 22.6979 50.7487 25.8438C50.7696 25.8438 50.7696 25.8542 50.7487 25.875C50.7487 25.875 50.7383 25.9062 50.7175 25.9688C50.7175 26.0104 50.6967 26.0938 50.655 26.2188C50.6342 26.3229 50.6029 26.4896 50.5612 26.7188C50.5196 26.9271 50.4571 27.1979 50.3737 27.5312C50.2904 27.8646 50.1862 28.2812 50.0612 28.7812C49.9571 29.2604 49.8217 29.8333 49.655 30.5C49.5092 31.1458 49.3321 31.9062 49.1237 32.7812C48.9362 33.6354 48.7071 34.6146 48.4362 35.7188C48.1862 36.8021 47.8946 38.0208 47.5612 39.375C47.2487 40.7292 46.8946 42.2292 46.4987 43.875C46.1237 45.5 45.7071 47.2917 45.2487 49.25C44.8112 51.1875 44.3217 53.3021 43.78 55.5938C43.2383 57.8854 42.655 60.3542 42.03 63C42.03 63 42.0404 63 42.0612 63C42.0612 63 42.0717 63 42.0925 63C42.1133 63 42.155 63 42.2175 63C42.2592 63 42.3217 63 42.405 63C42.4883 63 42.5925 63 42.7175 63C42.8425 63 42.9883 63 43.155 63C43.3425 63 43.5508 63 43.78 63C44.0092 63 44.2696 63 44.5612 63C44.8529 63 45.1862 63 45.5612 63C45.9362 63 46.3425 63 46.78 63C47.2383 63 47.7279 63 48.2487 63C48.7904 63 49.3737 63 49.9987 63C50.6446 63 51.3321 63 52.0612 63C52.0612 63 52.1029 62.8125 52.1862 62.4375C52.2696 62.0625 52.4154 61.3854 52.6237 60.4062C52.8529 59.4062 53.1758 58.0104 53.5925 56.2188C54.0092 54.4062 54.5508 52.1042 55.2175 49.3125C55.905 46.5 56.7383 43.0833 57.7175 39.0625C57.7175 39.0625 57.7175 39.0729 57.7175 39.0938C57.7175 39.0938 57.7175 39.125 57.7175 39.1875C57.7383 39.2292 57.7592 39.3021 57.78 39.4062C57.8008 39.4896 57.8217 39.6146 57.8425 39.7812C57.8842 39.9271 57.9258 40.1042 57.9675 40.3125C58.0092 40.5208 58.0508 40.7708 58.0925 41.0625C58.155 41.3333 58.2175 41.6562 58.28 42.0312C58.3633 42.4062 58.4467 42.8333 58.53 43.3125C58.6342 43.7708 58.7383 44.2917 58.8425 44.875C58.9675 45.4583 59.0925 46.1042 59.2175 46.8125C59.3633 47.5 59.5196 48.2604 59.6862 49.0938C59.8529 49.9271 60.03 50.8333 60.2175 51.8125C60.405 52.7708 60.6133 53.8021 60.8425 54.9062C61.1967 56.4062 61.9571 57.625 63.1237 58.5625C64.2904 59.4792 65.6133 59.9375 67.0925 59.9375C67.0925 59.9375 68.1654 58.4479 70.3112 55.4688C72.4779 52.4688 76.0196 47.2917 80.9362 39.9375C80.9362 39.9375 80.8946 40.125 80.8112 40.5C80.7279 40.8542 80.5717 41.5208 80.3425 42.5C80.1342 43.4583 79.8217 44.8021 79.405 46.5312C78.9883 48.2604 78.4362 50.4792 77.7487 53.1875C77.0821 55.875 76.2592 59.1458 75.28 63C75.3008 63 75.3217 63 75.3425 63C75.3633 63 75.3946 63 75.4362 63C75.4987 63 75.5717 63 75.655 63C75.7383 63 75.8321 63 75.9362 63C76.0612 63 76.2071 63 76.3737 63C76.5612 63 76.7696 63 76.9987 63C77.2279 63 77.4883 63 77.78 63C78.0717 63 78.3946 63 78.7487 63C79.1237 63 79.53 63 79.9675 63C80.4258 63 80.9154 63 81.4362 63C81.9779 63 82.5612 63 83.1862 63C83.8321 63 84.5196 63 85.2487 63Z" fill="white"/>
<path d="M89.7787 63H99.6537L102.466 51.4688H127.341L129.685 41.875H104.779L107.247 31.75C107.331 31.4375 107.487 31.1875 107.716 31C107.966 30.8125 108.206 30.7188 108.435 30.7188H125.31L120.247 51.4375L117.435 63H127.372L137.529 21.125H106.997C102.872 21.125 99.9871 23.4375 98.3412 28.0625L89.7787 63Z" fill="white"/>
<path d="M160.402 63H171.527L163.34 49.4375H167.152C169.298 49.4375 171.184 48.7917 172.809 47.5C174.455 46.2083 175.527 44.5521 176.027 42.5312C176.923 38.5312 177.538 35.7604 177.871 34.2188C178.225 32.6562 178.402 31.875 178.402 31.875C178.986 29.0417 178.371 26.5417 176.559 24.375C174.767 22.2083 172.423 21.125 169.527 21.125H149.184C144.913 21.125 141.965 23.4271 140.34 28.0312L132.09 62.9375H142.496C142.705 62 142.902 61.125 143.09 60.3125C143.277 59.4792 143.444 58.7083 143.59 58C143.757 57.2917 143.913 56.6458 144.059 56.0625C144.205 55.4583 144.33 54.9167 144.434 54.4375C144.559 53.9375 144.663 53.4792 144.746 53.0625C144.85 52.6458 144.934 52.2812 144.996 51.9688C145.08 51.6354 145.142 51.3438 145.184 51.0938C145.246 50.8438 145.298 50.625 145.34 50.4375C145.402 50.25 145.444 50.0938 145.465 49.9688C145.507 49.8229 145.538 49.7083 145.559 49.625C145.58 49.5417 145.59 49.4792 145.59 49.4375C145.611 49.375 145.621 49.3333 145.621 49.3125C145.621 49.2917 145.621 49.2917 145.621 49.3125C145.621 49.3125 145.621 49.3229 145.621 49.3438C145.621 49.3438 145.621 49.3542 145.621 49.375C145.621 49.3958 145.611 49.4167 145.59 49.4375H152.184L160.402 63ZM166.559 38.8438C166.35 39.4271 165.934 39.7188 165.309 39.7188H147.902C149.069 34.3854 149.652 31.7188 149.652 31.7188C149.736 31.4271 149.902 31.1875 150.152 31C150.402 30.7917 150.642 30.6875 150.871 30.6875H166.934C167.309 30.6875 167.621 30.8438 167.871 31.1562C168.121 31.4479 168.215 31.7812 168.152 32.1562C167.09 36.6146 166.559 38.8438 166.559 38.8438Z" fill="white"/>
<path d="M190.026 63H199.964L206.807 30.6562H220.276L222.62 21.125H185.464L183.12 30.6562H196.995L190.026 63Z" fill="white"/>
<path d="M326.048 63H336.017L339.017 49.875L339.267 48.6875C339.662 47.5208 340.454 46.9375 341.642 46.9375H357.548L356.642 50.6875L353.86 63H356.517C360.787 63 363.704 60.6875 365.267 56.0625L373.517 21.125H363.329L360.548 33.8438H360.517L360.142 35.4375C360.037 35.9583 359.767 36.3854 359.329 36.7188C358.912 37.0312 358.444 37.1875 357.923 37.1875H342.017L342.767 33.9062L345.548 21.125H342.892C338.767 21.125 335.85 23.4375 334.142 28.0625L326.048 63Z" fill="white"/>
<path d="M377.265 28.0625C379.099 23.4375 382.297 21.125 386.859 21.125C386.88 21.125 386.911 21.125 386.953 21.125C386.995 21.125 387.067 21.125 387.172 21.125C387.297 21.125 387.453 21.125 387.64 21.125C387.849 21.125 388.109 21.125 388.422 21.125C388.734 21.125 389.109 21.125 389.547 21.125C390.005 21.125 390.536 21.125 391.14 21.125C391.765 21.125 392.474 21.125 393.265 21.125C394.078 21.125 394.984 21.125 395.984 21.125C397.005 21.125 398.14 21.125 399.39 21.125C400.64 21.125 402.015 21.125 403.515 21.125C405.036 21.125 406.703 21.125 408.515 21.125C411.599 21.125 414.099 22.2083 416.015 24.375C417.953 26.5417 418.62 29.0417 418.015 31.875C418.015 31.875 418.015 31.8854 418.015 31.9062C418.015 31.9062 418.005 31.9375 417.984 32C417.963 32.0625 417.932 32.1562 417.89 32.2812C417.87 32.3854 417.828 32.5521 417.765 32.7812C417.724 33.0104 417.661 33.3021 417.578 33.6562C417.495 33.9896 417.39 34.4062 417.265 34.9062C417.14 35.4062 416.995 36 416.828 36.6875C416.661 37.375 416.463 38.1667 416.234 39.0625C416.026 39.9583 415.786 40.9688 415.515 42.0938C415.245 43.2188 414.932 44.4792 414.578 45.875C414.245 47.2708 413.87 48.8229 413.453 50.5312C413.057 52.2188 412.609 54.0625 412.109 56.0625C410.463 60.6875 407.276 63 402.547 63C402.547 63 402.536 63 402.515 63C402.515 63 402.484 63 402.422 63C402.38 63 402.307 63 402.203 63C402.099 63 401.942 63 401.734 63C401.547 63 401.297 63 400.984 63C400.672 63 400.297 63 399.859 63C399.422 63 398.89 63 398.265 63C397.661 63 396.963 63 396.172 63C395.38 63 394.484 63 393.484 63C392.484 63 391.359 63 390.109 63C388.859 63 387.484 63 385.984 63C384.484 63 382.838 63 381.047 63C377.88 63 375.338 61.9167 373.422 59.75C371.505 57.5833 370.828 55.0833 371.39 52.25C371.39 52.2292 371.39 52.1875 371.39 52.125C371.411 52.0625 371.432 51.9792 371.453 51.875C371.495 51.75 371.536 51.5729 371.578 51.3438C371.64 51.1146 371.713 50.8333 371.797 50.5C371.901 50.1458 372.005 49.7188 372.109 49.2188C372.234 48.7188 372.38 48.125 372.547 47.4375C372.713 46.75 372.901 45.9583 373.109 45.0625C373.338 44.1667 373.588 43.1562 373.859 42.0312C374.151 40.9062 374.463 39.6458 374.797 38.25C375.13 36.8542 375.505 35.3125 375.922 33.625C376.338 31.9167 376.786 30.0625 377.265 28.0625ZM400.703 53.4062C401.349 53.4062 401.786 53.0625 402.015 52.375C402.015 52.3542 402.015 52.3229 402.015 52.2812C402.036 52.2396 402.057 52.1667 402.078 52.0625C402.099 51.9583 402.13 51.8125 402.172 51.625C402.234 51.4375 402.297 51.2083 402.359 50.9375C402.422 50.6458 402.505 50.2917 402.609 49.875C402.713 49.4375 402.838 48.9375 402.984 48.375C403.13 47.8125 403.286 47.1562 403.453 46.4062C403.64 45.6562 403.849 44.8125 404.078 43.875C404.307 42.9167 404.567 41.8542 404.859 40.6875C405.151 39.5208 405.463 38.2396 405.797 36.8438C406.151 35.4271 406.536 33.875 406.953 32.1875C407.015 31.7917 406.932 31.4479 406.703 31.1562C406.474 30.8646 406.12 30.7188 405.64 30.7188C405.64 30.7188 405.63 30.7188 405.609 30.7188C405.609 30.7188 405.578 30.7188 405.515 30.7188C405.474 30.7188 405.39 30.7188 405.265 30.7188C405.161 30.7188 405.005 30.7188 404.797 30.7188C404.609 30.7188 404.349 30.7188 404.015 30.7188C403.703 30.7188 403.317 30.7188 402.859 30.7188C402.422 30.7188 401.89 30.7188 401.265 30.7188C400.64 30.7188 399.922 30.7188 399.109 30.7188C398.297 30.7188 397.37 30.7188 396.328 30.7188C395.307 30.7188 394.161 30.7188 392.89 30.7188C391.62 30.7188 390.224 30.7188 388.703 30.7188C388.036 30.7188 387.599 31.0625 387.39 31.75C387.39 31.75 387.39 31.7604 387.39 31.7812C387.39 31.7812 387.38 31.8021 387.359 31.8438C387.359 31.8854 387.338 31.9583 387.297 32.0625C387.276 32.1667 387.245 32.3125 387.203 32.5C387.161 32.6875 387.099 32.9271 387.015 33.2188C386.953 33.4896 386.87 33.8438 386.765 34.2812C386.661 34.6979 386.536 35.1875 386.39 35.75C386.265 36.3125 386.109 36.9688 385.922 37.7188C385.755 38.4688 385.547 39.3229 385.297 40.2812C385.067 41.2188 384.807 42.2708 384.515 43.4375C384.245 44.6042 383.932 45.8958 383.578 47.3125C383.245 48.7083 382.87 50.25 382.453 51.9375C382.39 52.3333 382.495 52.6771 382.765 52.9688C383.036 53.2604 383.37 53.4062 383.765 53.4062C383.786 53.4062 383.817 53.4062 383.859 53.4062C383.922 53.4062 384.005 53.4062 384.109 53.4062C384.234 53.4062 384.39 53.4062 384.578 53.4062C384.786 53.4062 385.047 53.4062 385.359 53.4062C385.672 53.4062 386.057 53.4062 386.515 53.4062C386.974 53.4062 387.515 53.4062 388.14 53.4062C388.765 53.4062 389.484 53.4062 390.297 53.4062C391.109 53.4062 392.026 53.4062 393.047 53.4062C394.067 53.4062 395.213 53.4062 396.484 53.4062C397.755 53.4062 399.161 53.4062 400.703 53.4062Z" fill="white"/>
<path d="M417.389 52.25C416.785 55.0833 417.41 57.5833 419.264 59.75C421.118 61.9167 423.535 63 426.514 63H451.483C451.733 61.9792 451.973 60.9792 452.202 60C452.743 57.6667 453.254 55.4792 453.733 53.4375H442.139V53.4062H429.108C428.712 53.4062 428.389 53.2604 428.139 52.9688C427.889 52.6771 427.795 52.3333 427.858 51.9375L429.702 44.0938H429.67L435.014 21.125H432.045C429.879 21.125 427.962 21.7604 426.295 23.0312C424.629 24.2812 423.545 25.9583 423.045 28.0625L417.389 52.25Z" fill="white"/>
<path d="M456.825 63C456.846 63 456.888 63 456.95 63C457.013 63 457.107 63 457.232 63C457.357 63 457.534 63 457.763 63C457.992 63 458.284 63 458.638 63C459.013 63 459.461 63 459.982 63C460.502 63 461.117 63 461.825 63C462.555 63 463.388 63 464.325 63C465.263 63 466.315 63 467.482 63C468.669 63 469.992 63 471.45 63C472.909 63 474.523 63 476.294 63C478.065 63 480.002 63 482.107 63C484.211 63 486.502 63 488.982 63C493.294 63 496.284 60.6875 497.95 56.0625C497.95 56.0417 497.961 56.0104 497.982 55.9688C498.002 55.9062 498.023 55.8125 498.044 55.6875C498.086 55.5625 498.127 55.3958 498.169 55.1875C498.232 54.9583 498.305 54.6771 498.388 54.3438C498.471 53.9896 498.565 53.5625 498.669 53.0625C498.794 52.5417 498.94 51.9479 499.107 51.2812C499.273 50.5938 499.461 49.8021 499.669 48.9062C499.877 48.0104 500.117 47 500.388 45.875C500.659 44.7292 500.961 43.4583 501.294 42.0625C501.648 40.6667 502.023 39.125 502.419 37.4375C502.815 35.75 503.263 33.8958 503.763 31.875C504.367 29.0417 503.763 26.5417 501.95 24.375C500.138 22.2083 497.763 21.125 494.825 21.125C494.825 21.125 494.815 21.125 494.794 21.125C494.794 21.125 494.763 21.125 494.7 21.125C494.659 21.125 494.575 21.125 494.45 21.125C494.346 21.125 494.18 21.125 493.95 21.125C493.742 21.125 493.471 21.125 493.138 21.125C492.825 21.125 492.43 21.125 491.95 21.125C491.471 21.125 490.898 21.125 490.232 21.125C489.586 21.125 488.836 21.125 487.982 21.125C487.148 21.125 486.19 21.125 485.107 21.125C484.023 21.125 482.815 21.125 481.482 21.125C480.169 21.125 478.7 21.125 477.075 21.125C475.471 21.125 473.711 21.125 471.794 21.125C470.398 21.125 469.127 21.5521 467.982 22.4062C466.857 23.2396 466.117 24.3333 465.763 25.6875C465.763 25.6875 465.752 25.6979 465.732 25.7188C465.732 25.7188 465.721 25.75 465.7 25.8125C465.7 25.8542 465.69 25.9375 465.669 26.0625C465.648 26.1875 465.607 26.3542 465.544 26.5625C465.502 26.7708 465.44 27.0521 465.357 27.4062C465.273 27.7396 465.169 28.1562 465.044 28.6562C464.94 29.1354 464.805 29.7083 464.638 30.375C464.471 31.0208 464.284 31.7812 464.075 32.6562C463.867 33.5312 463.627 34.5208 463.357 35.625C463.107 36.7083 462.815 37.9271 462.482 39.2812C462.169 40.6354 461.815 42.1354 461.419 43.7812C461.023 45.4271 460.586 47.2292 460.107 49.1875C459.648 51.1458 459.148 53.2708 458.607 55.5625C458.065 57.8542 457.471 60.3333 456.825 63ZM488.232 53.4062C488.232 53.4062 488.221 53.4062 488.2 53.4062C488.2 53.4062 488.169 53.4062 488.107 53.4062C488.065 53.4062 487.982 53.4062 487.857 53.4062C487.732 53.4062 487.555 53.4062 487.325 53.4062C487.096 53.4062 486.805 53.4062 486.45 53.4062C486.117 53.4062 485.69 53.4062 485.169 53.4062C484.669 53.4062 484.075 53.4062 483.388 53.4062C482.721 53.4062 481.94 53.4062 481.044 53.4062C480.148 53.4062 479.127 53.4062 477.982 53.4062C476.857 53.4062 475.586 53.4062 474.169 53.4062C472.773 53.4062 471.221 53.4062 469.513 53.4062C469.534 53.3854 469.544 53.3542 469.544 53.3125C469.565 53.2708 469.586 53.1875 469.607 53.0625C469.648 52.9375 469.69 52.7708 469.732 52.5625C469.773 52.3542 469.836 52.0938 469.919 51.7812C470.002 51.4479 470.096 51.0521 470.2 50.5938C470.325 50.1146 470.461 49.5521 470.607 48.9062C470.773 48.2604 470.95 47.5208 471.138 46.6875C471.346 45.8542 471.575 44.9062 471.825 43.8438C472.096 42.7812 472.388 41.5938 472.7 40.2812C473.013 38.9688 473.357 37.5208 473.732 35.9375C474.127 34.3333 474.555 32.5938 475.013 30.7188C475.034 30.7188 475.065 30.7188 475.107 30.7188C475.169 30.7188 475.252 30.7188 475.357 30.7188C475.482 30.7188 475.638 30.7188 475.825 30.7188C476.034 30.7188 476.294 30.7188 476.607 30.7188C476.94 30.7188 477.336 30.7188 477.794 30.7188C478.252 30.7188 478.794 30.7188 479.419 30.7188C480.065 30.7188 480.794 30.7188 481.607 30.7188C482.44 30.7188 483.377 30.7188 484.419 30.7188C485.461 30.7188 486.617 30.7188 487.888 30.7188C489.18 30.7188 490.607 30.7188 492.169 30.7188C492.544 30.7188 492.857 30.8646 493.107 31.1562C493.357 31.4479 493.45 31.7917 493.388 32.1875C493.388 32.1875 493.388 32.1979 493.388 32.2188C493.388 32.2188 493.377 32.2396 493.357 32.2812C493.357 32.3229 493.336 32.4062 493.294 32.5312C493.273 32.6354 493.242 32.7812 493.2 32.9688C493.159 33.1562 493.096 33.4062 493.013 33.7188C492.95 34.0312 492.857 34.4062 492.732 34.8438C492.627 35.2812 492.502 35.8021 492.357 36.4062C492.211 37.0104 492.044 37.7083 491.857 38.5C491.669 39.2708 491.45 40.1562 491.2 41.1562C490.971 42.1354 490.7 43.2396 490.388 44.4688C490.096 45.6979 489.773 47.0521 489.419 48.5312C489.065 50.0104 488.669 51.6354 488.232 53.4062Z" fill="white"/>
<path d="M504.168 52.25C503.585 55.0833 504.199 57.5833 506.012 59.75C507.845 61.9167 510.23 63 513.168 63H537.855C538.668 59.5417 539.407 56.3542 540.074 53.4375H528.637V53.4062H515.73C515.355 53.4062 515.043 53.2604 514.793 52.9688C514.543 52.6771 514.449 52.3333 514.512 51.9375L515.699 46.8438H532.762L534.887 37.2812H517.918L519.199 31.75C519.303 31.4375 519.48 31.1875 519.73 31C519.98 30.8125 520.22 30.7188 520.449 30.7188H545.355L547.574 21.125H518.699C514.387 21.125 511.418 23.4375 509.793 28.0625L504.168 52.25Z" fill="white"/>
<path d="M571.698 63H582.823L574.635 49.4375H578.448C580.594 49.4375 582.479 48.7917 584.104 47.5C585.75 46.2083 586.823 44.5521 587.323 42.5312C588.219 38.5312 588.833 35.7604 589.167 34.2188C589.521 32.6562 589.698 31.875 589.698 31.875C590.281 29.0417 589.667 26.5417 587.854 24.375C586.062 22.2083 583.719 21.125 580.823 21.125H560.479C556.208 21.125 553.26 23.4271 551.635 28.0312L543.385 62.9375H553.792C554 62 554.198 61.125 554.385 60.3125C554.573 59.4792 554.74 58.7083 554.885 58C555.052 57.2917 555.208 56.6458 555.354 56.0625C555.5 55.4583 555.625 54.9167 555.729 54.4375C555.854 53.9375 555.958 53.4792 556.042 53.0625C556.146 52.6458 556.229 52.2812 556.292 51.9688C556.375 51.6354 556.437 51.3438 556.479 51.0938C556.542 50.8438 556.594 50.625 556.635 50.4375C556.698 50.25 556.74 50.0938 556.76 49.9688C556.802 49.8229 556.833 49.7083 556.854 49.625C556.875 49.5417 556.885 49.4792 556.885 49.4375C556.906 49.375 556.917 49.3333 556.917 49.3125C556.917 49.2917 556.917 49.2917 556.917 49.3125C556.917 49.3125 556.917 49.3229 556.917 49.3438C556.917 49.3438 556.917 49.3542 556.917 49.375C556.917 49.3958 556.906 49.4167 556.885 49.4375H563.479L571.698 63ZM577.854 38.8438C577.646 39.4271 577.229 39.7188 576.604 39.7188H559.198C560.365 34.3854 560.948 31.7188 560.948 31.7188C561.031 31.4271 561.198 31.1875 561.448 31C561.698 30.7917 561.937 30.6875 562.167 30.6875H578.229C578.604 30.6875 578.917 30.8438 579.167 31.1562C579.417 31.4479 579.51 31.7812 579.448 32.1562C578.385 36.6146 577.854 38.8438 577.854 38.8438Z" fill="white"/>
<path d="M304.167 15.8904L261.95 15.7962C257.086 15.7962 252.728 19.7049 251.582 25.0731L250.812 28.8692L270.268 28.7797L266.05 43.0092C265.906 43.687 265.597 44.2495 265.124 44.6967C264.621 45.1647 263.907 45.4312 263.282 45.4084H253.828C247.719 45.4084 242.833 43.2484 239.168 38.9283C236.181 35.6956 234.995 31.3852 236.073 27.0749L237.959 19.8011C238.23 18.6576 238.806 16.7506 239.168 15.3106C239.575 13.8706 240.027 12.24 240.525 10.4188C244.371 1.22821 250.813 0 259.817 0H326.603C326.168 1.62952 321.852 13.8298 321.291 15.8904H304.167Z" fill="#FF715A"/>
<path d="M245.039 58.48L287.256 58.5741C292.12 58.5741 296.478 54.6655 297.624 49.2973L298.394 45.5012L278.938 45.5907L283.155 31.3611C283.3 30.6833 283.609 30.1208 284.082 29.6736C284.585 29.2057 285.299 28.9391 285.924 28.962L295.378 28.962C301.486 28.962 306.373 31.122 310.038 35.442C313.024 38.6748 314.211 42.9851 313.133 47.2955L311.247 54.5692C310.976 55.7128 310.4 57.6198 310.038 59.0598C309.631 60.4998 309.178 62.1304 308.681 63.9515C304.835 73.1421 298.393 74.3704 289.388 74.3704L222.603 74.3704C223.038 72.7408 227.354 60.5405 227.915 58.48L245.039 58.48Z" fill="#FF715A"/>
</svg>
