<svg width="29" height="21" viewBox="0 0 29 21" fill="none" xmlns="http://www.w3.org/2000/svg">
<path d="M22.7438 4.43098L10.9717 4.40472C9.6154 4.40472 8.40029 5.49463 8.0807 6.99154L7.86585 8.05006L13.2912 8.02511L12.1152 11.993C12.0748 12.182 11.9887 12.3388 11.8567 12.4635C11.7165 12.594 11.5174 12.6683 11.3432 12.662H8.70695C7.00364 12.662 5.64099 12.0596 4.619 10.855C3.78627 9.95358 3.45552 8.75165 3.756 7.54972L4.28184 5.52147C4.35755 5.2026 4.51806 4.67084 4.619 4.2693C4.73255 3.86776 4.85872 3.41308 4.99751 2.90525C6.06997 0.342483 7.86627 0 10.3771 0H29C28.8786 0.454385 27.6752 3.8564 27.5189 4.43098H22.7438Z" fill="#FF785A"/>
<path d="M6.2562 16.3068L18.0283 16.3331C19.3846 16.3331 20.5997 15.2432 20.9193 13.7463L21.1341 12.6877L15.7088 12.7127L16.8848 8.74483C16.9252 8.55583 17.0113 8.39897 17.1433 8.27428C17.2835 8.14379 17.4826 8.06946 17.6568 8.07584L20.2931 8.07584C21.9964 8.07584 23.359 8.67815 24.381 9.88277C25.2137 10.7842 25.5445 11.9861 25.244 13.1881L24.7182 15.2163C24.6425 15.5352 24.4819 16.0669 24.381 16.4685C24.2674 16.87 24.1413 17.3247 24.0025 17.8325C22.93 20.3953 21.1337 20.7378 18.6229 20.7378L2.09808e-05 20.7378C0.121382 20.2834 1.32476 16.8814 1.48114 16.3068L6.2562 16.3068Z" fill="#272838"/>
</svg>
