<svg width="579" height="414" viewBox="0 0 579 414" fill="none" xmlns="http://www.w3.org/2000/svg">
<g opacity="0.03">
<path d="M454.047 88.4576L219.035 87.9334C191.959 87.9334 167.701 109.692 161.321 139.575L157.032 160.707L265.34 160.209L241.863 239.421C241.057 243.194 239.337 246.326 236.703 248.815C233.903 251.42 229.929 252.904 226.451 252.776H173.823C139.819 252.776 112.616 240.752 92.2132 216.704C75.589 198.708 68.9861 174.713 74.9848 150.719L85.4824 110.228C86.9937 103.862 90.1982 93.2462 92.2132 85.2301C94.4801 77.214 96.999 68.1369 99.7697 57.9989C121.18 6.83715 157.04 0 207.165 0H578.942C576.519 9.0711 552.496 76.9871 549.374 88.4576H454.047Z" fill="#272838"/>
<path d="M124.895 325.54L359.907 326.065C386.983 326.065 411.241 304.306 417.621 274.423L421.91 253.291L313.602 253.789L337.079 174.577C337.885 170.804 339.605 167.673 342.239 165.183C345.039 162.578 349.013 161.094 352.491 161.222L405.119 161.222C439.123 161.222 466.326 173.246 486.729 197.294C503.353 215.29 509.956 239.285 503.957 263.279L493.46 303.77C491.948 310.136 488.744 320.752 486.729 328.768C484.462 336.784 481.943 345.861 479.172 355.999C457.762 407.161 421.902 413.998 371.777 413.998L-3.05176e-05 413.998C2.42276 404.927 26.4464 337.011 29.5683 325.54L124.895 325.54Z" fill="#272838"/>
</g>
</svg>
