<svg width="61" height="56" viewBox="0 0 61 56" fill="none" xmlns="http://www.w3.org/2000/svg">
<path d="M19.3344 27.4236C20.3593 26.8318 20.7105 25.5213 20.1187 24.4964C19.527 23.4714 18.2164 23.1203 17.1915 23.712C16.1666 24.3038 15.8154 25.6143 16.4072 26.6392C16.9989 27.6641 18.3095 28.0153 19.3344 27.4236Z" fill="white"/>
<path d="M11.5856 18C11.7285 15.0643 10.2499 11.0643 8.01422 8.57141C12.6285 8.36427 20.9214 9.2857 24.5499 11.4286" stroke="white" stroke-width="2" stroke-linecap="round" stroke-linejoin="round"/>
<path d="M21 52.1429V54.2858H13.8571V49.0643" stroke="white" stroke-width="2" stroke-linecap="round" stroke-linejoin="round"/>
<path d="M21.0928 52.1429H31.7143V54.2857H38.8571V49.4214L39.6357 48.9572" stroke="white" stroke-width="2" stroke-linecap="round" stroke-linejoin="round"/>
<path d="M6.50714 37.8572H2.42857C1.63959 37.8572 1 37.2176 1 36.4286V27.8572C1 27.0682 1.63959 26.4286 2.42857 26.4286H6.71429" stroke="white" stroke-width="2" stroke-linecap="round" stroke-linejoin="round"/>
<path d="M13.8571 48.9429C13.1604 48.3851 12.4996 47.7839 11.8786 47.1429C9.26092 44.6062 7.40103 41.391 6.50714 37.8572" stroke="white" stroke-width="2" stroke-linecap="round" stroke-linejoin="round"/>
<path d="M24.5714 11.4928C25.2857 11.4285 26.3357 11.3428 26.9857 11.3428C32.5911 11.3296 37.9715 13.5465 41.9405 17.5047C45.9095 21.463 48.141 26.8374 48.1428 32.4428C48.1428 39.3428 44.6714 45.15 39.5714 49" stroke="white" stroke-width="2" stroke-linecap="round" stroke-linejoin="round"/>
<path d="M6.8714 26.1571C8.37308 21.3651 11.5303 17.2635 15.7785 14.5857" stroke="white" stroke-width="2" stroke-linecap="round" stroke-linejoin="round"/>
<path d="M51.7143 32.8572V29.2858" stroke="white" stroke-width="2" stroke-linecap="round" stroke-linejoin="round"/>
<path d="M29.5714 17.2214C36.1157 18.3129 41.2377 23.452 42.3071 30" stroke="white" stroke-width="2" stroke-linecap="round" stroke-linejoin="round"/>
</svg>
