<svg xmlns="http://www.w3.org/2000/svg" width="59" height="35" viewBox="0 0 59 35"><defs><style>.cls-1{fill-rule:evenodd}</style></defs><path class="cls-1" d="M730.113,8650.88H719.386a1.35,1.35,0,0,0,0,2.7h10.728A1.35,1.35,0,0,0,730.113,8650.88Zm-4.022-6.73H715.363a1.345,1.345,0,0,0,0,2.69h10.728A1.345,1.345,0,0,0,726.091,8644.15Zm-4.023-6.73H711.341a1.345,1.345,0,0,0,0,2.69h10.727A1.345,1.345,0,0,0,722.068,8637.42Zm41.3-3.5a1.44,1.44,0,0,0-1.877-.27l-14.214,10.91a4.235,4.235,0,0,1-4.961,0L728.1,8633.65a1.314,1.314,0,0,0-1.877.27,1.327,1.327,0,0,0,.268,1.89l14.348,10.9a6.6,6.6,0,0,0,4.022,1.35,6.33,6.33,0,0,0,4.023-1.35l14.214-10.9A1.46,1.46,0,0,0,763.368,8633.92Zm1.609-5.92H722.068a1.345,1.345,0,0,0,0,2.69h42.909a1.271,1.271,0,0,1,1.341,1.35v26.92a1.271,1.271,0,0,1-1.341,1.35H722.068a1.345,1.345,0,0,0,0,2.69h42.909a3.959,3.959,0,0,0,4.023-4.04v-26.92A3.959,3.959,0,0,0,764.977,8628Zm-1.743,27.33-8.045-8.08a1.329,1.329,0,1,0-1.878,1.88l8.046,8.08a1.3,1.3,0,0,0,1.877,0A1.3,1.3,0,0,0,763.234,8655.33Z" transform="translate(-710 -8628)"/></svg>