<svg width="61" height="62" viewBox="0 0 61 62" fill="none" xmlns="http://www.w3.org/2000/svg">
<path d="M39.0281 24.8027C41.1446 30.4277 39.2943 36.7746 34.4865 40.3808C29.6787 43.9871 23.0676 43.9871 18.2598 40.3808C13.4521 36.7746 11.6017 30.4277 13.7182 24.8027" stroke="white" stroke-width="2" stroke-linecap="round" stroke-linejoin="round"/>
<path d="M51.7042 35.4929C48.8659 30.7687 44.7696 26.9269 39.8732 24.3972C26.0154 17.2818 9.01396 22.1346 1 35.4929" stroke="white" stroke-width="2" stroke-linecap="round" stroke-linejoin="round"/>
<path d="M1 35.4929C6.3477 44.392 15.9698 49.8357 26.3521 49.8357C36.7344 49.8357 46.3565 44.392 51.7042 35.4929" stroke="white" stroke-width="2" stroke-linecap="round" stroke-linejoin="round"/>
<path d="M51.7042 49.0142V57.4649C51.7042 59.3317 50.1908 60.8451 48.3239 60.8451H34.8028" stroke="white" stroke-width="2" stroke-linecap="round" stroke-linejoin="round"/>
<path d="M1 21.9719V13.5212C1 11.6543 2.5134 10.1409 4.38028 10.1409H17.9014" stroke="white" stroke-width="2" stroke-linecap="round" stroke-linejoin="round"/>
<path d="M20.9996 32.45C22.2122 31.75 22.6277 30.1995 21.9276 28.9869C21.2275 27.7743 19.677 27.3589 18.4644 28.0589C17.2518 28.759 16.8364 30.3095 17.5365 31.5221C18.2365 32.7347 19.7871 33.1501 20.9996 32.45Z" fill="white"/>
</svg>
