<svg width="79" height="79" viewBox="0 0 79 79" fill="none" xmlns="http://www.w3.org/2000/svg">
<g filter="url(#filter0_d)">
<path d="M39.7226 63.125C53.1306 63.125 64 52.3519 64 39.0625C64 25.7731 53.1306 15 39.7226 15C26.3145 15 15.4451 25.7731 15.4451 39.0625C15.4451 52.3519 26.3145 63.125 39.7226 63.125Z" fill="#FF785A"/>
</g>
<path d="M48.3931 58.4087C52.4052 59.0808 55.3389 62.5295 55.3295 66.5624C53.5607 68.5493 44.5434 69.6699 34.5202 69.9381C31.3156 70.0206 28.0139 70.0206 24.8093 69.9381C14.8 69.6562 5.78964 68.5631 4.00004 66.5693C3.98721 62.5337 6.92175 59.0813 10.9365 58.4087" stroke="white" stroke-width="2" stroke-linecap="round" stroke-linejoin="round"/>
<path d="M27.5839 50.75H30.3584" stroke="white" stroke-width="2" stroke-linecap="round" stroke-linejoin="round"/>
<path d="M28.9711 63.8125V69.3125" stroke="white" stroke-width="2" stroke-linecap="round" stroke-linejoin="round"/>
<path d="M15.7919 30.2419V37.8044C14.989 38.1328 14.4489 38.8903 14.4047 39.7501V42.5001C14.4541 43.3547 14.9934 44.1057 15.7919 44.4319V45.9376C15.7919 52.7713 21.6948 58.3126 28.9711 58.3126C36.2474 58.3126 42.1503 52.7713 42.1503 45.9376V44.4319C43.5376 44.1432 43.5376 43.3869 43.5376 42.5001V39.7501C43.5376 38.8563 43.5376 38.1001 42.1503 37.8182V32.1876" stroke="white" stroke-width="2" stroke-linecap="round" stroke-linejoin="round"/>
<path fill-rule="evenodd" clip-rule="evenodd" d="M42.1503 37.7631L31.7457 37.6875C23.7688 37.7425 14.4463 31.885 13.0174 23.9375H36.0393C39.4143 23.9375 42.1503 26.6493 42.1503 29.9944V37.7631Z" stroke="white" stroke-width="2" stroke-linecap="round" stroke-linejoin="round"/>
<path d="M27.5839 50.75H30.3584" stroke="white" stroke-width="2" stroke-linecap="round" stroke-linejoin="round"/>
<path d="M23.9353 69.7456L15.7919 58.3125L20.6474 55.5625" stroke="white" stroke-width="2" stroke-linecap="round" stroke-linejoin="round"/>
<path d="M34.7006 69.7456L42.8439 58.3125L37.9884 55.5625" stroke="white" stroke-width="2" stroke-linecap="round" stroke-linejoin="round"/>
<defs>
<filter id="filter0_d" x="0.445129" y="0" width="78.5549" height="78.125" filterUnits="userSpaceOnUse" color-interpolation-filters="sRGB">
<feFlood flood-opacity="0" result="BackgroundImageFix"/>
<feColorMatrix in="SourceAlpha" type="matrix" values="0 0 0 0 0 0 0 0 0 0 0 0 0 0 0 0 0 0 127 0"/>
<feOffset/>
<feGaussianBlur stdDeviation="7.5"/>
<feColorMatrix type="matrix" values="0 0 0 0 1 0 0 0 0 0.443137 0 0 0 0 0.352941 0 0 0 1 0"/>
<feBlend mode="normal" in2="BackgroundImageFix" result="effect1_dropShadow"/>
<feBlend mode="normal" in="SourceGraphic" in2="effect1_dropShadow" result="shape"/>
</filter>
</defs>
</svg>
