<svg width="79" height="78" viewBox="0 0 79 78" fill="none" xmlns="http://www.w3.org/2000/svg">
<g filter="url(#filter0_d)">
<path d="M39.8025 62.4241C53.1664 62.4241 64 51.8079 64 38.7121C64 25.6163 53.1664 15 39.8025 15C26.4385 15 15.6049 25.6163 15.6049 38.7121C15.6049 51.8079 26.4385 62.4241 39.8025 62.4241Z" fill="#FF785A"/>
</g>
<path d="M37.9358 33.658C33.5802 30.5822 31.762 33.5564 32.0592 35.1891C32.322 36.639 34.3615 37.12 35.198 37.2216C41.1506 38.0549 37.1822 44.945 31.278 40.6497" stroke="white" stroke-width="2" stroke-linecap="round" stroke-linejoin="round"/>
<path d="M34.7003 30.5823L34.7072 32.1879" stroke="white" stroke-width="2" stroke-linecap="round" stroke-linejoin="round"/>
<path d="M34.7003 42.0115L34.7072 44.132" stroke="white" stroke-width="2" stroke-linecap="round" stroke-linejoin="round"/>
<path d="M25.0489 45.3786C21.3043 41.3794 20.5219 35.5083 23.0929 30.7009C25.6638 25.8935 31.0357 23.1829 36.5224 23.9244C42.0092 24.6659 46.4317 28.7003 47.5788 34.0101C48.7258 39.32 46.3509 44.7644 41.6415 47.6211" stroke="white" stroke-width="2" stroke-linecap="round" stroke-linejoin="round"/>
<path d="M16.2963 46.8418V66.4889" stroke="white" stroke-width="2" stroke-linecap="round" stroke-linejoin="round"/>
<path d="M10.7654 66.489C9.50716 66.489 8 64.9105 8 63.7045V49.5518C8 48.3391 8.50469 46.8012 10.4612 46.8419H16.2963" stroke="white" stroke-width="2" stroke-linecap="round" stroke-linejoin="round"/>
<path d="M28.0494 55.6494H41.6415L54.086 51.1576C55.4554 50.6139 57.0191 51.2212 57.6367 52.5367C58.2542 53.8521 57.7075 55.4109 56.3951 56.0762L33.3798 66.6924L16.4138 63.1017" stroke="white" stroke-width="2" stroke-linecap="round" stroke-linejoin="round"/>
<path d="M16.2963 49.5518H34.963" stroke="white" stroke-width="2" stroke-linecap="round" stroke-linejoin="round"/>
<defs>
<filter id="filter0_d" x="0.604919" y="0" width="78.3951" height="77.4241" filterUnits="userSpaceOnUse" color-interpolation-filters="sRGB">
<feFlood flood-opacity="0" result="BackgroundImageFix"/>
<feColorMatrix in="SourceAlpha" type="matrix" values="0 0 0 0 0 0 0 0 0 0 0 0 0 0 0 0 0 0 127 0"/>
<feOffset/>
<feGaussianBlur stdDeviation="7.5"/>
<feColorMatrix type="matrix" values="0 0 0 0 1 0 0 0 0 0.443137 0 0 0 0 0.352941 0 0 0 1 0"/>
<feBlend mode="normal" in2="BackgroundImageFix" result="effect1_dropShadow"/>
<feBlend mode="normal" in="SourceGraphic" in2="effect1_dropShadow" result="shape"/>
</filter>
</defs>
</svg>
