<svg xmlns="http://www.w3.org/2000/svg" width="35" height="35" viewBox="0 0 35 35"><defs><style>.cls-1{fill-rule:evenodd}</style></defs><path id="Forma_1" data-name="Forma 1" class="cls-1" d="M949.13,953.656a0.683,0.683,0,0,0-.684.683v2.977a0.684,0.684,0,0,0,1.367,0v-2.977A0.683,0.683,0,0,0,949.13,953.656Zm24.6-12.929h-1.266a3.134,3.134,0,0,0,.558-1.789v-0.449a3.153,3.153,0,1,0-6.305,0v0.449a3.141,3.141,0,0,0,.494,1.693,5.466,5.466,0,0,1-4.443-5.362v-0.323a1.977,1.977,0,0,0-2.048-1.976,1.99,1.99,0,0,0-.538.1v-3.453l7.069-2.561a0.684,0.684,0,0,0,0-1.286l-7.519-2.724a0.684,0.684,0,0,0-.917.643v9.381a1.983,1.983,0,0,0-.537-0.1,1.977,1.977,0,0,0-2.048,1.976v0.323a5.465,5.465,0,0,1-4.443,5.362,3.141,3.141,0,0,0,.494-1.693v-0.449a3.153,3.153,0,1,0-6.305,0v0.449a3.134,3.134,0,0,0,.558,1.789h-1.266A3.273,3.273,0,0,0,942,944v7.78a2.156,2.156,0,0,0,2.154,2.154,0.684,0.684,0,0,0,0-1.367,0.788,0.788,0,0,1-.787-0.787V944a1.9,1.9,0,0,1,1.9-1.9h5.506a6.832,6.832,0,0,0,6.823-6.825v-0.323a0.61,0.61,0,0,1,.632-0.609,0.63,0.63,0,0,1,.586.639v0.293a8.056,8.056,0,0,1-5.968,7.773,0.682,0.682,0,0,0-.507.66v6.433h-6.389v-5.812a0.684,0.684,0,1,0-1.367,0v6.5a0.683,0.683,0,0,0,.684.683h0.08v5.814a0.684,0.684,0,0,0,1.368,0V951.5h4.837v5.814a0.684,0.684,0,0,0,1.367,0V951.5h0.1a0.683,0.683,0,0,0,.684-0.683v-6.607a9.413,9.413,0,0,0,5.108-4.064v7.214a0.684,0.684,0,0,0,1.368,0v-7.214a9.413,9.413,0,0,0,5.108,4.064v6.607a0.683,0.683,0,0,0,.684.683h0.1v5.814a0.684,0.684,0,0,0,1.367,0V951.5h4.837v5.814a0.684,0.684,0,0,0,1.368,0V951.5h0.08a0.683,0.683,0,0,0,.684-0.683v-6.5a0.684,0.684,0,1,0-1.367,0v5.812h-6.389V943.7a0.682,0.682,0,0,0-.507-0.66,8.056,8.056,0,0,1-5.968-7.773v-0.293a0.63,0.63,0,0,1,.586-0.639,0.61,0.61,0,0,1,.632.609v0.323a6.832,6.832,0,0,0,6.823,6.825h5.506a1.9,1.9,0,0,1,1.9,1.9v1.171a0.684,0.684,0,1,0,1.367,0V944A3.273,3.273,0,0,0,973.731,940.727ZM960.184,926v-1.339l4.828,1.75-4.828,1.748V926Zm-9.269,12.94a1.786,1.786,0,1,1-3.571,0v-0.449a1.786,1.786,0,1,1,3.571,0v0.449Zm20.741,0a1.786,1.786,0,1,1-3.571,0v-0.449a1.786,1.786,0,1,1,3.571,0v0.449Zm5.144,8.48a0.684,0.684,0,1,0,.2.484A0.69,0.69,0,0,0,976.8,947.418Zm-0.484,2.444a0.683,0.683,0,0,0-.683.684v1.23a0.788,0.788,0,0,1-.787.787,0.684,0.684,0,0,0,0,1.367A2.156,2.156,0,0,0,977,951.776v-1.23A0.684,0.684,0,0,0,976.316,949.862Zm-6.446,3.794a0.683,0.683,0,0,0-.683.683v2.977a0.684,0.684,0,0,0,1.367,0v-2.977A0.683,0.683,0,0,0,969.87,953.656Zm-9.887-4.3a0.682,0.682,0,1,0,.2.483A0.689,0.689,0,0,0,959.983,949.357Z" transform="translate(-942 -923)"/></svg>