<svg xmlns="http://www.w3.org/2000/svg" width="38" height="36" viewBox="0 0 38 36"><defs><style>.cls-1{fill-rule:evenodd}</style></defs><path id="Forma_1" data-name="Forma 1" class="cls-1" d="M559.47,956.882a0.728,0.728,0,0,0-1.049,0,0.777,0.777,0,0,0,0,1.079,0.728,0.728,0,0,0,1.049,0A0.777,0.777,0,0,0,559.47,956.882Zm27.012-10.839a3.245,3.245,0,0,0-4.267-1.211l-7.97,4.1a0.774,0.774,0,0,0-.331,1.024,0.732,0.732,0,0,0,1,.34l7.97-4.1a1.786,1.786,0,0,1,2.35.667,1.9,1.9,0,0,1,.228,1.472,1.849,1.849,0,0,1-.891,1.175l-10.714,6.009a8.911,8.911,0,0,1-4.346,1.14h-7.741a0.763,0.763,0,0,0,0,1.525h7.741a10.371,10.371,0,0,0,5.058-1.326l10.713-6.009a3.4,3.4,0,0,0,1.617-2.134A3.487,3.487,0,0,0,586.482,946.043Zm-15.336,2.988-3.289-2.677a9.514,9.514,0,0,0-5.986-2.141h-5.682v-0.046a0.752,0.752,0,0,0-.742-0.763h-5.705a0.763,0.763,0,0,0,0,1.525h4.963v12.545h-4.963a0.763,0.763,0,0,0,0,1.525h5.705a0.752,0.752,0,0,0,.742-0.762v-12.5h5.682a8.05,8.05,0,0,1,5.064,1.811l3.289,2.678a1.464,1.464,0,0,1,.523,1.348,1.438,1.438,0,0,1-.869,1.145,1.388,1.388,0,0,1-1.321-.135l-4.2-2.868a0.73,0.73,0,0,0-1.029.214,0.775,0.775,0,0,0,.208,1.057l4.2,2.867a2.829,2.829,0,0,0,2.7.277,2.943,2.943,0,0,0,1.778-2.342A3,3,0,0,0,571.146,949.031Zm-18.352-1.664a0.729,0.729,0,0,0-1.049-.046l-0.007.007a0.778,0.778,0,0,0-.043,1.078,0.728,0.728,0,0,0,1.048.045l0.007-.007A0.777,0.777,0,0,0,552.794,947.367Zm29.5-18.584a3.22,3.22,0,0,0,.527-1.773v-0.832a3.094,3.094,0,1,0-6.185,0v0.832a3.228,3.228,0,0,0,.527,1.773,4.388,4.388,0,0,0-2.63,1.872,4.383,4.383,0,0,0-2.629-1.872,3.228,3.228,0,0,0,.527-1.773v-0.832a3.094,3.094,0,1,0-6.185,0v0.832a3.22,3.22,0,0,0,.527,1.773,4.385,4.385,0,0,0-2.63,1.872,4.388,4.388,0,0,0-2.63-1.872,3.22,3.22,0,0,0,.527-1.773v-0.832a3.094,3.094,0,1,0-6.185,0v0.832a3.22,3.22,0,0,0,.527,1.773,4.476,4.476,0,0,0-3.372,4.374v6.317a0.753,0.753,0,0,0,.742.763h31.172a0.753,0.753,0,0,0,.742-0.763v-6.317A4.475,4.475,0,0,0,582.292,928.783Zm-24.955-2.605a1.609,1.609,0,1,1,3.216,0v0.832a1.609,1.609,0,1,1-3.216,0v-0.832Zm6.061,12.533h-8.906v-5.554a2.933,2.933,0,0,1,2.889-2.969H558.2v2.817a0.743,0.743,0,1,0,1.485,0v-2.817h0.822a2.932,2.932,0,0,1,2.888,2.969v5.554h0Zm4.33-12.533a1.609,1.609,0,1,1,3.216,0v0.832a1.609,1.609,0,1,1-3.216,0v-0.832Zm6.061,12.533h-8.906v-5.554a2.933,2.933,0,0,1,2.888-2.969h0.823v2.817a0.742,0.742,0,1,0,1.484,0v-2.817H570.9a2.933,2.933,0,0,1,2.888,2.969v5.554h0Zm4.33-12.533a1.609,1.609,0,1,1,3.216,0v0.832a1.609,1.609,0,1,1-3.216,0v-0.832Zm6.061,12.533h-8.906v-5.554a2.932,2.932,0,0,1,2.888-2.969h0.823v2.817a0.742,0.742,0,1,0,1.484,0v-2.817h0.822a2.933,2.933,0,0,1,2.889,2.969v5.554h0Z" transform="translate(-549 -923)"/></svg>