<svg width="61" height="57" viewBox="0 0 61 57" fill="none" xmlns="http://www.w3.org/2000/svg">
<path d="M43.0692 43.4484H43.8692C46.0495 43.4629 48.1347 44.3431 49.666 45.8951C51.1974 47.4471 52.0494 49.544 52.0347 51.7242C47.9589 56.3518 5.13812 56.2967 1.00019 51.7242C0.985505 49.544 1.83756 47.4471 3.36891 45.8951C4.90025 44.3431 6.98543 43.4629 9.16572 43.4484H9.96572" stroke="white" stroke-width="2" stroke-linecap="round" stroke-linejoin="round"/>
<path d="M38.9313 31.0346V30.3449C39.9102 29.7923 40.4558 28.701 40.3106 27.5863V24.8277C40.3106 23.9311 40.3106 23.1725 38.9313 22.8897V17.2415" stroke="white" stroke-width="2" stroke-linecap="round" stroke-linejoin="round"/>
<path d="M12.7243 19.3104V22.8897C11.9303 23.217 11.3942 23.9703 11.345 24.8277V27.5863C11.3148 28.6786 11.8324 29.7137 12.7243 30.3449V31.0346" stroke="white" stroke-width="2" stroke-linecap="round" stroke-linejoin="round"/>
<path d="M10.6553 11.0345V12.4138C10.6553 18.1241 15.6347 22.7586 21.345 22.7586C25.2716 22.7649 28.8975 20.6568 30.8347 17.2414H38.9312V14.4827C38.9312 12.9586 38.3864 11.7241 36.8623 11.7241H32.0347C31.8829 9.41955 30.9598 7.23316 29.414 5.51721H10.6553" stroke="white" stroke-width="2" stroke-linecap="round" stroke-linejoin="round"/>
<path fill-rule="evenodd" clip-rule="evenodd" d="M12.7243 30.3448V35.1724C12.7243 42.0276 18.5933 48.9656 25.8278 48.9656C33.0623 48.9656 38.9312 42.0276 38.9312 35.1724V30.3448L33.4554 33.7931L28.9312 31.0345H23.6071L18.8967 33.7931L12.7243 30.3448Z" stroke="white" stroke-width="2" stroke-linecap="round" stroke-linejoin="round"/>
<path d="M24.4485 35.8621H27.2071" stroke="white" stroke-width="2" stroke-linecap="round" stroke-linejoin="round"/>
<path d="M25.8278 48.9656V54.4828" stroke="white" stroke-width="2" stroke-linecap="round" stroke-linejoin="round"/>
</svg>
