<svg width="40" height="27" viewBox="0 0 40 27" fill="none" xmlns="http://www.w3.org/2000/svg">
<path d="M40 22.4999C40 23.2891 39.7533 24.0207 39.3582 24.6644L26.7286 11.9467L39.2213 2.10972C39.7073 2.80381 40 3.61914 40 4.5002V22.4999ZM20 14.2559L37.3832 0.566995C36.6699 0.215535 35.8666 0 35.0001 0H4.99997C4.13239 0 3.32886 0.215535 2.61841 0.566995L20 14.2559ZM24.8463 13.4277L20.8226 16.5984C20.5872 16.7829 20.2942 16.875 20 16.875C19.7057 16.875 19.4127 16.7829 19.1773 16.5984L15.1527 13.4276L2.36326 26.3078C3.12985 26.7407 4.02827 27 4.99989 27H35.0001C35.9716 27 36.8704 26.7407 37.6367 26.3078L24.8463 13.4277ZM0.778878 2.10965C0.292986 2.80374 0 3.61906 0 4.5002V22.5C0 23.2892 0.245501 24.0208 0.642112 24.6645L13.2703 11.9446L0.778878 2.10965Z" fill="#FF785A"/>
</svg>
