<svg xmlns="http://www.w3.org/2000/svg" width="27" height="25" viewBox="0 0 27 25"><defs><style>.cls-1{fill-rule:evenodd;filter:url(#filter)}</style><filter id="filter" x="454" y="488" width="27" height="25" filterUnits="userSpaceOnUse"><feFlood result="flood" flood-color="#ffd110"/><feComposite result="composite" operator="in" in2="SourceGraphic"/><feBlend result="blend" in2="SourceGraphic"/></filter></defs><path id="Forma_1" data-name="Forma 1" class="cls-1" d="M467.5,488a0.527,0.527,0,0,0-.527.529v3.151a0.528,0.528,0,1,0,1.055,0v-3.151A0.528,0.528,0,0,0,467.5,488Zm-2.988,4.522-1.262-1.266a0.525,0.525,0,0,0-.745,0,0.531,0.531,0,0,0,0,.749l1.262,1.266a0.524,0.524,0,0,0,.745,0A0.53,0.53,0,0,0,464.511,492.522Zm7.985-1.265a0.527,0.527,0,0,0-.746,0l-1.341,1.349a0.53,0.53,0,0,0,0,.748,0.524,0.524,0,0,0,.746,0l1.341-1.348A0.531,0.531,0,0,0,472.5,491.257Zm5.05,10.726H477.12a2.689,2.689,0,0,0,.555-1.639V499.6a2.687,2.687,0,1,0-5.373,0v0.581l-3.968-3.984a1.956,1.956,0,0,0-1.669,0l-3.967,3.984V499.6a2.687,2.687,0,1,0-5.373,0v0.748a2.689,2.689,0,0,0,.555,1.639h-0.426A3.465,3.465,0,0,0,454,505.452v7.018a0.528,0.528,0,0,0,.527.529h2.228a0.533,0.533,0,0,1,.3,0h5.907a0.528,0.528,0,0,0,.527-0.529v-1.8a0.528,0.528,0,1,0-1.055,0v1.271h-4.851v-6.035a0.528,0.528,0,1,0-1.055,0v6.035h-1.476v-6.488a2.407,2.407,0,0,1,2.4-2.41h3.665a0.525,0.525,0,0,0,.372-0.154h0l5.478-5.5a5.853,5.853,0,0,1-.991,3.076l-3.452,5.148a0.534,0.534,0,0,0-.09.3v0.579a0.528,0.528,0,1,0,1.055,0v-0.418l3.362-5.013a7,7,0,0,0,.646-1.209,7,7,0,0,0,.646,1.209l3.362,5.013v6.4a0.528,0.528,0,0,0,.527.529h5.906a0.536,0.536,0,0,1,.3,0h2.228A0.528,0.528,0,0,0,481,512.47v-7.018A3.466,3.466,0,0,0,477.546,501.983Zm-15.9-1.639a1.632,1.632,0,1,1-3.263,0V499.6a1.632,1.632,0,1,1,3.263,0v0.748Zm11.713-.748a1.632,1.632,0,1,1,3.264,0v0.748a1.632,1.632,0,1,1-3.264,0V499.6Zm6.589,12.344h-1.476v-3.919a0.528,0.528,0,1,0-1.055,0v3.919h-4.852v-6.035a0.533,0.533,0,0,0-.089-0.3l-3.452-5.148a5.853,5.853,0,0,1-.991-3.076l5.478,5.5a0.162,0.162,0,0,0,.02.018,0.522,0.522,0,0,0,.353.137h3.665a2.407,2.407,0,0,1,2.4,2.41v6.488h0Zm-1.631-6.41a0.526,0.526,0,0,0-.746,0,0.531,0.531,0,0,0,.373.905,0.529,0.529,0,0,0,.373-0.156A0.53,0.53,0,0,0,478.314,505.53Zm-14.976,2.805a0.528,0.528,0,0,0-.9.374,0.538,0.538,0,0,0,.155.375,0.526,0.526,0,0,0,.746,0A0.532,0.532,0,0,0,463.338,508.335Z" transform="translate(-454 -488)"/></svg>