<svg xmlns="http://www.w3.org/2000/svg" width="27" height="26" viewBox="0 0 27 26"><defs><style>.cls-1{fill-rule:evenodd;filter:url(#filter)}</style><filter id="filter" x="454" y="563" width="27" height="26" filterUnits="userSpaceOnUse"><feFlood result="flood" flood-color="#ffd110"/><feComposite result="composite" operator="in" in2="SourceGraphic"/><feBlend result="blend" in2="SourceGraphic"/></filter></defs><path class="cls-1" d="M458.28,582.861a0.517,0.517,0,1,1-.527.516A0.522,0.522,0,0,1,458.28,582.861Zm20.042-15.281h-3.1a2.924,2.924,0,0,0-1.845.65v-1.553A3.722,3.722,0,0,0,469.618,563H466.1a0.522,0.522,0,0,0-.528.517v1.418a3.722,3.722,0,0,0,3.756,3.678h2.991v5.235c-0.139-.009-0.279-0.014-0.42-0.014a6.6,6.6,0,0,0-3.831,1.211,0.509,0.509,0,0,0-.12.721,0.536,0.536,0,0,0,.737.116,5.544,5.544,0,0,1,3.214-1.014,5.47,5.47,0,0,1,.832.063c0.023,0,.046.008,0.07,0.01a5.512,5.512,0,0,1,3.915,2.707,0.529,0.529,0,0,0,.461.267,0.547,0.547,0,0,0,.256-0.065,0.511,0.511,0,0,0,.2-0.7A6.553,6.553,0,0,0,473.374,574v-1.67h2.575a2.874,2.874,0,0,0,2.9-2.84V568.1A0.521,0.521,0,0,0,478.322,567.58Zm-6,0h-2.991a2.678,2.678,0,0,1-2.7-2.646v-0.9h2.991a2.677,2.677,0,0,1,2.7,2.645v0.9h0Zm5.476,1.909a1.829,1.829,0,0,1-1.846,1.807h-2.575v-0.877a1.829,1.829,0,0,1,1.845-1.807H477.8v0.877Zm3.03,10.271a2.086,2.086,0,0,0-2.725-1.034l-0.008,0-3.446,1.556a0.512,0.512,0,0,0-.258.685,0.533,0.533,0,0,0,.7.254l3.441-1.555a1.022,1.022,0,0,1,1.331.508,0.984,0.984,0,0,1-.517,1.307l-7.051,3.049a4.168,4.168,0,0,1-3.48-.078l-2.581-1.255a5.235,5.235,0,0,0-4.374-.1l-0.051.021-1.929-4.278,2.678-1.158a5.436,5.436,0,0,1,4.009-.125l5.19,1.866a0.917,0.917,0,0,1,.563,1.157,0.943,0.943,0,0,1-1.185.571l-4.014-1.329a0.529,0.529,0,0,0-.668.323,0.513,0.513,0,0,0,.33.655l4.014,1.329a2.008,2.008,0,0,0,2.521-1.215,1.95,1.95,0,0,0-1.2-2.46l-5.191-1.867a6.5,6.5,0,0,0-4.8.15l-2.695,1.166a1.318,1.318,0,0,0-.635-0.5,1.352,1.352,0,0,0-1.021.022l-3.462,1.486a0.516,0.516,0,0,0-.316.473v9.1a0.515,0.515,0,0,0,.251.44,0.533,0.533,0,0,0,.514.021l6.722-3.325a1.312,1.312,0,0,0,.692-0.718,1.277,1.277,0,0,0,.041-0.827l0.063-.026a4.162,4.162,0,0,1,3.479.076l2.581,1.256a5.233,5.233,0,0,0,4.375.1l7.051-3.048A2.01,2.01,0,0,0,480.825,579.76ZM461.2,584.528a0.281,0.281,0,0,1-.149.152,0.192,0.192,0,0,0-.025.012l-5.967,2.952v-2.261l1.559-.75a0.511,0.511,0,0,0,.241-0.691,0.53,0.53,0,0,0-.705-0.236l-1.095.526v-4.509l3.147-1.351a0.284,0.284,0,0,1,.216,0,0.273,0.273,0,0,1,.155.145l2.481,5.5h0l0.136,0.3A0.271,0.271,0,0,1,461.2,584.528Z" transform="translate(-454 -563)"/></svg>