<svg xmlns="http://www.w3.org/2000/svg" xmlns:xlink="http://www.w3.org/1999/xlink" width="28" height="23" viewBox="0 0 28 23"><defs><path id="mpeta" d="M805.74 563.8a.54.54 0 0 1-.55.55.54.54 0 0 1-.39-.92.55.55 0 0 1 .78 0c.1.1.16.23.16.38zm-12.56 12.74a.54.54 0 0 1-.55.54.54.54 0 0 1-.39-.92.56.56 0 0 1 .78 0c.1.1.16.24.16.38zm12.35-1.32l-1.06 1.05a.55.55 0 0 1-.14.1 2.04 2.04 0 0 1-1.9 1.26h-.1a2.06 2.06 0 0 1-2.06 2.12h-.07c.02.54-.18 1.1-.6 1.52a2.07 2.07 0 0 1-1.56.6 2.06 2.06 0 0 1-3.51 1.54l-1.04-1.03-.76.76a2.06 2.06 0 0 1-3.52-1.52h-.08a2.07 2.07 0 0 1-2.06-2.04v-.08h-.08c-.53 0-1.06-.2-1.46-.6-.4-.38-.6-.9-.6-1.44v-.08h-.09a2.07 2.07 0 0 1-2.05-1.87.57.57 0 0 1-.12-.1l-.2-.2a8.23 8.23 0 0 1 0-11.77 8.42 8.42 0 0 1 5.95-2.44c2.08 0 4.04.74 5.58 2.09a8.56 8.56 0 0 1 9.66-1.04c.27.14.36.47.22.73a.55.55 0 0 1-.75.21 7.43 7.43 0 0 0-8.73 1.22l-3.77 3.72a1.23 1.23 0 0 0 0 1.76c.49.48 1.29.48 1.78 0l1.65-1.63c.1-.1.24-.16.38-.16h2.16c.71 0 1.39-.28 1.9-.78l1.07-1.06a.55.55 0 0 1 .77 0c.22.2.22.55 0 .76l-1.07 1.07c-.3.3-.64.53-1 .7l5.61 5.56c.21.21.37.46.47.72l.41-.41a7.2 7.2 0 0 0 1.2-8.7.54.54 0 0 1 .2-.74c.26-.15.6-.06.75.2a8.27 8.27 0 0 1-1.38 10zm-20 .8l.94-.93a.95.95 0 0 0 0-1.35.97.97 0 0 0-1.37 0l-.94.93a.94.94 0 0 0 0 1.35.97.97 0 0 0 1.37 0zm2.14 2.12l.94-.93a.95.95 0 0 0 0-1.35.97.97 0 0 0-.68-.28c-.26 0-.5.1-.69.28l-.94.93a.94.94 0 0 0 0 1.35c.38.37 1 .37 1.37 0zm2.14 2.12l.94-.93a.95.95 0 0 0 0-1.36.96.96 0 0 0-.68-.28c-.26 0-.5.1-.68.28l-.95.94a.94.94 0 0 0 0 1.35c.38.37 1 .37 1.37 0zm3.37.5c0-.25-.1-.49-.29-.67a.97.97 0 0 0-.68-.28c-.26 0-.5.1-.68.28l-.95.93a.95.95 0 0 0 0 1.35c.19.18.43.28.69.28.26 0 .5-.1.68-.28l.94-.93a.94.94 0 0 0 .29-.67zm9.93-5.84l-6.04-5.97c-.16.02-.31.03-.47.03h-1.93l-1.49 1.47a2.35 2.35 0 0 1-4.01-1.64c0-.62.24-1.2.69-1.64l3.36-3.33a7.33 7.33 0 0 0-4.8-1.76 7.33 7.33 0 0 0-7.33 7.25c0 1.86.7 3.61 2 4.96.08-.14.18-.26.3-.38l.94-.93c.8-.8 2.11-.8 2.91 0 .43.41.63.97.6 1.52h.09a2.06 2.06 0 0 1 2.06 2.11h.08a2.06 2.06 0 0 1 2.06 2.12h.08a2.06 2.06 0 0 1 2.06 2.04c0 .25-.04.5-.13.72l1.16 1.15a.96.96 0 0 0 1.37 0 .95.95 0 0 0 0-1.35l-3.05-3.01a.54.54 0 0 1 0-.77.55.55 0 0 1 .77 0l.65.64.14.1 2.28 2.25c.37.38.99.38 1.36 0a.95.95 0 0 0 0-1.35l-2.27-2.25-2.14-2.12a.54.54 0 0 1 0-.76.55.55 0 0 1 .77 0l4.42 4.37a.97.97 0 0 0 1.37 0 .95.95 0 0 0 0-1.36l-4.42-4.36a.54.54 0 0 1 0-.77.55.55 0 0 1 .77 0l2.14 2.12 2.28 2.25a.97.97 0 0 0 1.37 0 .95.95 0 0 0 0-1.35z"/></defs><g transform="translate(-780 -561)"><use xlink:href="#mpeta"/><use fill="#ffd110" xlink:href="#mpeta"/></g></svg>