<svg xmlns="http://www.w3.org/2000/svg" viewBox="0 0 512 335.45"><title>portu</title><g id="bfaebbc0-ef5f-4411-b9ac-6688466fcc3d" data-name="Слой 2"><g id="5307f0b5-3222-448e-9be7-a7a2298393dc" data-name="Layer 1"><path d="M473.65,335.45H38.35A38.34,38.34,0,0,1,0,297.1V38.35A38.34,38.34,0,0,1,38.35,0H473.65A38.34,38.34,0,0,1,512,38.35V297.11A38.34,38.34,0,0,1,473.65,335.45Z" style="fill:#ff4b55"/><path d="M38.35,0A38.34,38.34,0,0,0,0,38.35V297.11a38.34,38.34,0,0,0,38.35,38.35h147V0Z" style="fill:#73af00"/><circle cx="185.45" cy="167.72" r="79.38" style="fill:#ffe15a"/><path d="M211.93,141.24v35.31a26.48,26.48,0,0,1-53,0V141.24h53m8.83-17.66H150.14a8.83,8.83,0,0,0-8.83,8.83v44.14a44.14,44.14,0,1,0,88.28,0V132.41a8.83,8.83,0,0,0-8.83-8.83Z" style="fill:#ff4b55"/><path d="M211.93,141.24v35.31a26.48,26.48,0,0,1-53,0V141.24h53" style="fill:#f5f5f5"/><circle cx="150.07" cy="132.41" r="4.41" style="fill:#ffe15a"/><circle cx="220.69" cy="132.41" r="4.41" style="fill:#ffe15a"/><circle cx="150.07" cy="167.72" r="4.41" style="fill:#ffe15a"/><circle cx="220.69" cy="167.72" r="4.41" style="fill:#ffe15a"/><circle cx="185.38" cy="132.41" r="4.41" style="fill:#ffe15a"/><circle cx="211.88" cy="200.27" r="4.41" style="fill:#ffe15a"/><circle cx="159.4" cy="200.27" r="4.41" style="fill:#ffe15a"/><path d="M191.15,165.49v7.6a5.7,5.7,0,0,1-11.4,0v-7.6h11.4" style="fill:#41479b"/><path d="M191.15,147.47v7.6a5.7,5.7,0,0,1-11.4,0v-7.6h11.4" style="fill:#41479b"/><path d="M191.15,183.69v7.6a5.7,5.7,0,0,1-11.4,0v-7.6h11.4" style="fill:#41479b"/><path d="M206.51,165.49v7.6a5.7,5.7,0,0,1-11.4,0v-7.6h11.4" style="fill:#41479b"/><path d="M175.79,165.49v7.6a5.7,5.7,0,0,1-11.4,0v-7.6h11.4" style="fill:#41479b"/></g></g></svg>