<svg xmlns="http://www.w3.org/2000/svg" xmlns:xlink="http://www.w3.org/1999/xlink" width="38" height="38" viewBox="0 0 38 38"><defs><path id="3d9na" d="M435.44 1923.17c.12-.33.48-.5.8-.38a4.42 4.42 0 0 1 2.7 2.7.63.63 0 0 1-1.19.42 3.2 3.2 0 0 0-1.92-1.93.63.63 0 0 1-.39-.8zm-16.5 3.8a6.97 6.97 0 0 1 9.75-6.39.63.63 0 0 1-.5 1.16 5.7 5.7 0 0 0-7.98 5.22c-.01 3.72 3.77 9.63 10.12 13.21 6.35-3.58 10.14-9.49 10.14-13.2a5.7 5.7 0 0 0-10.87-2.4.63.63 0 0 1-1.15-.54 6.97 6.97 0 0 1 13.28 2.94c0 4.09-3.89 10.55-11.1 14.49a.63.63 0 0 1-.6 0c-7.2-3.94-11.1-10.4-11.1-14.5zm-6.34 16.46c0-.35.28-.63.63-.63h5.07c1.16 0 2.47.98 3.86 2.03 1.11.83 2.37 1.77 3.1 1.77h3.8c1.5 0 2.27.74 2.35.82a.63.63 0 0 1-.9.9c0-.02-.48-.45-1.44-.45h-3.8c-1.17 0-2.48-.99-3.87-2.03-1.1-.83-2.36-1.77-3.1-1.77h-5.07a.63.63 0 0 1-.63-.64zm-5.38 11.4a.95.95 0 1 1 0-1.9.95.95 0 0 1 0 1.9zm35.7-6.3c-.18.65-.6 1.2-1.19 1.53l-8.53 5.31c-.07.05-2.1 1.36-6.67 1.36-3.92 0-9.57-3.11-9.8-3.24 0 0-1.2-.56-3.5-.56a.63.63 0 1 1 0-1.26c2.66 0 4.03.67 4.09.7.08.04 5.62 3.1 9.21 3.1 4.14 0 5.97-1.15 5.99-1.17l8.56-5.33a1.27 1.27 0 0 0 .48-1.74 1.27 1.27 0 0 0-1.73-.46l-7.32 3.57c-1.4.7-2.71.7-5.34.7-2.56 0-6.28-.62-6.44-.65a.63.63 0 0 1 .2-1.25c.04 0 3.79.63 6.24.63 2.5 0 3.65 0 4.78-.57l7.29-3.55a2.52 2.52 0 0 1 3.67 2.87zm-31.59-6.36v13.93a1.9 1.9 0 0 1-1.9 1.9h-3.8a.63.63 0 1 1 0-1.27h3.8c.35 0 .64-.28.64-.63v-13.93a.63.63 0 0 0-.64-.64h-3.8a.63.63 0 1 1 0-1.26h3.8c1.05 0 1.9.85 1.9 1.9z"/></defs><use xlink:href="#3d9na" transform="translate(-405 -1920)"/></svg>