<svg xmlns="http://www.w3.org/2000/svg" xmlns:xlink="http://www.w3.org/1999/xlink" width="34" height="39" viewBox="0 0 34 39"><defs><path id="3lbka" d="M430.82 2040.2v2.6h7.57c.34 0 .61.3.61.65v11.05c0 .1-.02.18-.06.26l-2.5 5.84-.01.01a.63.63 0 0 1-.58.39h-11.33a.64.64 0 0 1-.63-.65v-5.2h-4l-2.35 5.45v.01a.63.63 0 0 1-.58.39h-11.33a.64.64 0 0 1-.63-.65v-11.7c0-.1.03-.2.07-.3l2.51-5.2c.11-.21.33-.35.57-.35h2.52v-2.6h-5.04a.64.64 0 0 1-.63-.65v-11.7c0-.1.03-.2.07-.3l2.51-5.2c.11-.21.33-.35.57-.35h11.35c.34 0 .62.3.61.65v10.4h3.78v-5.2c0-.1.02-.2.07-.3l2.51-5.2c.1-.21.33-.35.57-.35h11.35c.34 0 .61.3.61.65v11.05c0 .09-.02.18-.06.26l-2.5 5.84-.01.01a.63.63 0 0 1-.58.39zm6.92-14.8l-1.26 2.6v8.49l1.26-2.93zm-12.2 1.8h9.92l1.9-3.9h-9.93zm-6.69 5.85v-7.65l-1.26 2.6v5.05zm-.34 1.3h-.92v2.14zm-11.86-7.15h9.92l1.9-3.9h-9.93zm9.68 11.7v-4.55h-5.66v-1.3h5.66v-4.55h-10.07v10.4zm-9.68 9.1h4.02v-3.9h-2.13zm9.68 1.3h-4.4v5.85h-1.26v-5.85h-4.41v10.4h10.07zm2.13-5.2h-6.53v3.9h4.64zm.05 11.05h-.92v2.14zm.34-8.95l-1.26 2.6v5.05h1.26zm7.62-3.04c.1-.22.33-.36.57-.36h2.52v-2.6h-5.04a.64.64 0 0 1-.63-.65v-5.2h-4l-2.35 5.45v.01a.63.63 0 0 1-.58.39h-5.03v2.6h7.57c.34 0 .62.3.61.65v10.4h3.78v-5.2c0-.1.02-.2.07-.3zm.96.94l-1.9 3.9h4.03v-3.9zm7.8 5.2h-10.08v4.55h5.67v1.3h-5.67v4.55h10.07zm2.51-3.1l-1.26 2.6v8.49l1.26-2.93zm-6.92-2.1v3.9h4.64l1.9-3.9zm0-11.05v5.85h4.4v-10.4h-10.07v10.4h4.4v-5.85z"/></defs><use xlink:href="#3lbka" transform="translate(-405 -2022)"/></svg>