<svg xmlns="http://www.w3.org/2000/svg" xmlns:xlink="http://www.w3.org/1999/xlink" width="40" height="36" viewBox="0 0 40 36"><defs><path id="fwdia" d="M420.42 2162h-.05c-7.17-.67-9.97-4.15-10.88-5.7-.86 1.22-.92 1.23-1.27 1.08a.47.47 0 0 1-.27-.52l.4.04-.39-.08c0-.06-.01-.44-.58-2.46-.52-1.85-.6-3.95-.6-4.98-.94.9-2.24.95-2.3.96-.2 0-.37-.11-.45-.3a.45.45 0 0 1 .13-.5c.47-.42.76-2.85.76-4.85a19.78 19.78 0 0 1 2.79-9.55 4.48 4.48 0 0 1-2.45-6.68 4.55 4.55 0 0 1 8.23.65A19 19 0 0 1 424 2126h.01a19 19 0 0 1 10.5 3.11 4.55 4.55 0 0 1 8.23-.65 4.48 4.48 0 0 1-2.44 6.68 19.74 19.74 0 0 1 2.8 9.53c-.01 2.02.28 4.45.75 4.87.15.12.2.33.13.5a.47.47 0 0 1-.45.3c-.06 0-1.35-.06-2.3-.96a20 20 0 0 1-.6 4.98c-.57 2.02-.59 2.4-.58 2.46l.01.04a.47.47 0 0 1-.27.52c-.34.15-.4.14-1.27-1.09-.9 1.56-3.7 5.04-10.88 5.7a.46.46 0 0 1-.5-.41.46.46 0 0 1 .41-.5c4.45-.4 7.05-1.98 8.46-3.22a7.48 7.48 0 0 0 2-2.63.47.47 0 1 1 .82-.1l.47.66c.09-.4.23-.93.44-1.67.66-2.37.56-5.3.56-5.33 0-.08.02-.15.05-.23.17-.31.42-.39.56-.4.4-.05.7.26.77.35.3.35.66.57 1 .7-.49-1.5-.51-3.93-.51-4.52a18.52 18.52 0 0 0-5.49-12.65c-3.26-3.2-7.58-5-12.2-5.12v1.85a9.5 9.5 0 0 1 6.22 2.66c.18.17.18.47 0 .64a.46.46 0 0 1-.37.14.47.47 0 0 1-.37-.14 8.55 8.55 0 0 0-5.49-2.37v1.8a6.5 6.5 0 0 1 4.13 1.8c.18.18.18.47 0 .65-.1.1-.24.14-.37.13a.47.47 0 0 1-.37-.13 5.53 5.53 0 0 0-3.39-1.52v1.81c.73.1 1.4.38 1.9.8.19.18.2.47.03.66a.46.46 0 0 1-.59.08.46.46 0 0 1-.2-.1c-.3-.24-.7-.41-1.14-.5v3.35c0 .26-.2.46-.46.46a.46.46 0 0 1-.47-.46v-3.37c-.5.07-.96.25-1.3.53a.46.46 0 0 1-.2.1.47.47 0 0 1-.6-.1.46.46 0 0 1 .05-.64 3.6 3.6 0 0 1 2.05-.82v-1.81c-1.38.1-2.66.64-3.55 1.53a.46.46 0 0 1-.37.13.47.47 0 0 1-.37-.13.46.46 0 0 1 0-.65 6.52 6.52 0 0 1 4.3-1.8v-1.81c-2.18.1-4.22.95-5.66 2.38-.1.1-.24.15-.37.14h-.04a.46.46 0 0 1-.33-.14.45.45 0 0 1 0-.64 9.52 9.52 0 0 1 6.4-2.66v-1.85a17.94 17.94 0 0 0-12.21 5.12 18.53 18.53 0 0 0-5.49 12.66c0 .58-.02 3.02-.5 4.51.33-.13.7-.34.98-.69.09-.1.38-.4.78-.36.14.01.39.09.56.4.03.08.05.15.05.23 0 .03-.1 2.96.56 5.33.2.74.35 1.27.44 1.67l.47-.66c.1-.14.27-.22.44-.2.18.03.32.14.38.3 0 .01.49 1.28 2 2.63 1.4 1.24 4.01 2.81 8.46 3.22.26.03.44.25.42.5a.46.46 0 0 1-.46.42zm16.9-30.6c.33.3.64.64.94.97a.46.46 0 0 1 .17-.02c.32 0 .63-.11.87-.33a1.2 1.2 0 0 0-.8-2.07 1.2 1.2 0 0 0-1.25 1.16c0 .07-.01.12-.03.17l.1.11zm2.46 2.94c.35-.09.68-.23 1-.41 1.72-1 2.23-3.2 1.16-5a3.58 3.58 0 0 0-4.96-1.38 3.68 3.68 0 0 0-1.68 2.11c.38.29.75.58 1.11.9a2.14 2.14 0 0 1 4.19.65 2.13 2.13 0 0 1-1.65 2c.3.36.57.74.83 1.13zm-29.1-2.95l.1-.1a.44.44 0 0 1-.03-.18 1.2 1.2 0 0 0-1.25-1.16 1.2 1.2 0 0 0-1.17 1.23c0 .32.14.62.37.84.24.22.55.33.87.33.06 0 .12 0 .17.02.3-.33.61-.66.93-.98zm2.02-1.73a3.68 3.68 0 0 0-1.68-2.11 3.58 3.58 0 0 0-4.96 1.38c-1.07 1.8-.56 4 1.16 5 .32.18.65.32 1 .4.27-.38.54-.76.83-1.12a2.13 2.13 0 0 1-1.65-2 2.14 2.14 0 1 1 4.19-.65c.36-.32.73-.61 1.11-.9zm4.04 14.63a2.05 2.05 0 0 1-2.06-2.04c0-.4.12-.78.34-1.11l-.84-.95a.46.46 0 0 1 .04-.65c.2-.17.49-.15.66.04l.8.92c.32-.18.69-.28 1.06-.28 1.14 0 2.06.91 2.06 2.03 0 .49-.17.93-.45 1.28l.67.77c.17.19.15.48-.04.64a.46.46 0 0 1-.66-.04l-.7-.8c-.27.12-.56.2-.88.2zm0-3.16c-.28 0-.55.1-.75.29a1.12 1.12 0 0 0 .75 1.96c.63 0 1.13-.5 1.13-1.13 0-.61-.5-1.12-1.13-1.12zm-1.88 13.27l-.06-.01a10.9 10.9 0 0 1-7.06-7.34c-1.68-6.86 3.02-9.8 3.07-9.82.22-.14.5-.07.64.15.13.21.06.5-.16.63-.17.1-4.16 2.64-2.65 8.82.01.05 1.3 5.03 6.42 6.68.06 0 .18.03.33.06.21-2.13 1.46-2.79 2.5-2.96a.46.46 0 1 1 .15.9c-.7.12-1.62.49-1.74 2.34-.1 1.68 1.41 3.15 3.38 3.28.97.06 1.9-.21 2.61-.76a2.9 2.9 0 0 0 1.1-1.67.47.47 0 0 1-.08-.07 1.53 1.53 0 0 1-.66-.65c-.58-1.09-1.14-1.15-1.6-1.19a1.8 1.8 0 0 1-.41-.07c-.58-.2-.71-.78-.7-1.1-.05-.46-.25-3.48 1.5-6.73.11-.22.4-.3.62-.19.22.12.31.4.19.62-1.1 2.04-1.36 4-1.4 5.16a9.01 9.01 0 0 1 3.38-.42c.74.02 2 .1 2.8.44a12.17 12.17 0 0 0-1.41-5.18.46.46 0 0 1 .2-.62c.22-.12.5-.03.62.2a12.52 12.52 0 0 1 1.5 6.77l-.05.15c-.05.32-.23.73-.7.9a1.8 1.8 0 0 1-.41.07c-.46.04-1.02.1-1.6 1.2-.09.17-.29.44-.6.6.13.7.52 1.31 1.13 1.78.72.55 1.65.82 2.6.76 1.98-.13 3.5-1.6 3.39-3.28-.12-1.85-1.05-2.22-1.73-2.33a.46.46 0 0 1-.38-.53.46.46 0 0 1 .53-.38c1.03.17 2.28.83 2.49 2.96l.33-.06c5.13-1.66 6.4-6.63 6.42-6.68 1.52-6.21-2.61-8.8-2.65-8.82a.46.46 0 0 1-.16-.63.47.47 0 0 1 .64-.15c.05.02 4.75 2.96 3.07 9.82a10.9 10.9 0 0 1-7.12 7.35l-.54.11a4.14 4.14 0 0 1-2.53 3.13c-.16 1.4-1.21 3.6-6.23 3.6-3.77 0-6.08-1.4-6.25-3.77a4.07 4.07 0 0 1-2.19-2.96c-.26-.06-.53-.1-.54-.1zm13.52 3.64l-.33.01c-1.07 0-2.1-.33-2.9-.96-.5-.38-.89-.84-1.15-1.36-.26.52-.65.98-1.14 1.36a4.77 4.77 0 0 1-3.24.95c-.35-.02-.7-.08-1.03-.17.4 1.57 2.27 2.45 5.25 2.45 1.76 0 4.65-.32 5.23-2.37-.23.05-.46.08-.7.1zm-4.03-4.47c.82-1.54 1.8-1.64 2.33-1.7l.21-.02c.05-.02.08-.16.08-.23 0-.12-.16-.2-.16-.2-.65-.36-2.12-.44-2.89-.44-.76 0-2.24.08-2.88.42l-.02.02s-.14.07-.16.17v.06c0 .08.03.18.08.2l.2.03c.54.05 1.52.15 2.33 1.68.01.02.16.3.45.3.28 0 .43-.28.43-.29zm-10.2-1.87a.46.46 0 0 1-.2-.04c-4.8-2.24-4.6-7.62-4.6-7.68a.46.46 0 0 1 .48-.43c.26 0 .46.22.45.48-.01.2-.16 4.82 4.06 6.8.23.1.33.38.22.61a.46.46 0 0 1-.42.26zm.43-2.01a.47.47 0 0 1-.17-.03c-3.21-1.2-3.31-4.64-3.31-4.78 0-.25.2-.46.45-.47.26 0 .47.2.47.45 0 .13.1 2.96 2.72 3.94a.46.46 0 0 1-.16.89zm16.68-5.4c-.31 0-.61-.07-.88-.2l-.7.81a.47.47 0 0 1-.66.04.46.46 0 0 1-.04-.64l.67-.77a2.05 2.05 0 0 1 2.66-3.03l.81-.92c.17-.19.46-.2.66-.04.19.16.21.45.04.65l-.84.95c.22.33.34.72.34 1.11 0 1.13-.93 2.04-2.06 2.04zm0-3.16c-.63 0-1.13.5-1.13 1.12 0 .62.5 1.13 1.13 1.13.62 0 1.13-.5 1.13-1.13a1.14 1.14 0 0 0-1.13-1.12zm2.6 10.57a.46.46 0 0 1-.42-.26.46.46 0 0 1 .22-.61c4.23-1.98 4.07-6.76 4.06-6.8a.46.46 0 0 1 .45-.48c.26-.02.47.18.48.43 0 .06.2 5.44-4.6 7.68a.46.46 0 0 1-.2.04zm-.44-2.01a.46.46 0 0 1-.16-.89c2.63-.99 2.72-3.9 2.72-3.94 0-.25.22-.44.47-.45.25 0 .46.22.45.47 0 .14-.1 3.57-3.31 4.78a.48.48 0 0 1-.17.03z"/></defs><use xlink:href="#fwdia" transform="translate(-404 -2126)"/></svg>