<svg xmlns="http://www.w3.org/2000/svg" width="53" height="45" viewBox="0 0 53 45"><defs><style>.cls-1{fill:#00baff;fill-rule:evenodd}</style></defs><path class="cls-1" d="M1029,8641.51a2.542,2.542,0,0,0,1.83,2.29l19.42,5.78,0.72,13.19a1.3,1.3,0,0,0,.89,1.15,1.14,1.14,0,0,0,.44.08,1.321,1.321,0,0,0,.99-0.44l6.87-7.49,9.73,6.64a2.561,2.561,0,0,0,1.47.46,2.609,2.609,0,0,0,2.54-2.05l8.08-40.56a1.319,1.319,0,0,0-1.8-1.46l-49.63,19.9A2.569,2.569,0,0,0,1029,8641.51Zm24.43,17.99-0.44-8.32,4.97,3.39Zm17.88,1.01-17.71-12.08,24.84-23.68Zm4.4-36.8-24.55,23.41-19.4-5.78Z" transform="translate(-1029 -8619)"/></svg>