<svg width="35" height="29" viewBox="0 0 35 29" fill="none" xmlns="http://www.w3.org/2000/svg">
<path d="M0.618204 13.9054L8.68292 16.7699L11.8045 26.3233C12.0042 26.9352 12.7904 27.1613 13.3123 26.7553L17.8077 23.2678C18.2789 22.9024 18.9501 22.8842 19.4425 23.2244L27.5506 28.8264C28.1089 29.2126 28.8998 28.9214 29.0398 28.2795L34.9794 1.09022C35.1322 0.388975 34.4082 -0.196021 33.7065 0.062226L0.608754 12.213C-0.20803 12.5128 -0.200914 13.6133 0.618204 13.9054ZM11.3014 15.245L27.0628 6.00689C27.3461 5.84135 27.6375 6.20585 27.3943 6.42058L14.3865 17.9273C13.9293 18.3323 13.6344 18.8744 13.5508 19.4627L13.1077 22.5876C13.0491 23.0049 12.4332 23.0463 12.3122 22.6425L10.608 16.9441C10.4129 16.2941 10.6973 15.5999 11.3014 15.245Z" fill="#FF785A"/>
</svg>
