<svg width="41" height="41" viewBox="0 0 41 41" fill="none" xmlns="http://www.w3.org/2000/svg">
<g clip-path="url(#clip0)">
<path d="M20.4995 28.0978C19.3533 28.0978 18.3925 29.0586 18.3925 30.2049C18.3925 31.3511 19.3533 32.3119 20.4995 32.3119C21.6036 32.3119 22.6065 31.3511 22.556 30.2554C22.6065 29.0502 21.6542 28.0978 20.4995 28.0978Z" fill="#FBC743"/>
<path d="M40.0023 35.5653C41.3255 33.2812 41.334 30.5589 40.0192 28.2833L26.8206 5.42607C25.5143 3.12518 23.1544 1.75981 20.5079 1.75981C17.8615 1.75981 15.5016 3.13361 14.1952 5.41764L0.979817 28.3002C-0.33498 30.6011 -0.326552 33.3402 1.0051 35.6243C2.3199 37.883 4.67136 39.2399 7.30095 39.2399H33.6643C36.3023 39.2399 38.6707 37.8661 40.0023 35.5653ZM37.1367 33.9133C36.4035 35.1776 35.1055 35.9277 33.6559 35.9277H7.29253C5.85974 35.9277 4.57022 35.1944 3.85383 33.9555C3.129 32.6997 3.12058 31.1995 3.8454 29.9352L17.0608 7.06114C17.7772 5.80534 19.0583 5.06366 20.5079 5.06366C21.9491 5.06366 23.2387 5.81377 23.955 7.06957L37.162 29.9437C37.87 31.1742 37.8615 32.6575 37.1367 33.9133Z" fill="#FBC743"/>
<path d="M19.9769 13.3066C18.974 13.5931 18.3503 14.5034 18.3503 15.6075C18.4008 16.2733 18.443 16.9476 18.4936 17.6134C18.6368 20.1503 18.7801 22.6366 18.9234 25.1735C18.974 26.0331 19.6398 26.6568 20.4995 26.6568C21.3591 26.6568 22.0334 25.991 22.0755 25.1229C22.0755 24.6004 22.0755 24.1199 22.1261 23.589C22.2188 21.9623 22.32 20.3357 22.4127 18.709C22.4632 17.6555 22.556 16.602 22.6065 15.5485C22.6065 15.1692 22.5559 14.8321 22.4127 14.495C21.9828 13.551 20.9799 13.0706 19.9769 13.3066Z" fill="#FBC743"/>
</g>
<defs>
<clipPath id="clip0">
<rect width="41" height="41" fill="white"/>
</clipPath>
</defs>
</svg>
